<svg width="1651" height="400" viewBox="0 0 1651 400" fill="none" xmlns="http://www.w3.org/2000/svg">
<path d="M110.555 336.308C37.0998 299.579 -0.00277686 239.543 0 157.417C0.00528226 1.20758 399.995 1.20758 400 157.417C400.003 239.543 362.9 299.579 289.445 336.308C226.96 367.552 173.04 367.552 110.555 336.308Z" fill="#DB475E"/>
<ellipse cx="114.311" cy="182.462" rx="35.7782" ry="53.6673" fill="white"/>
<ellipse cx="286.047" cy="182.462" rx="35.7782" ry="53.6673" fill="white"/>
<path d="M518 315L586.1 99H639.05L707.15 315H669.95L608.15 121.2H616.25L555.2 315H518ZM555.95 268.2V234.45H669.35V268.2H555.95ZM795.02 319.65C783.02 319.65 773.12 317.65 765.32 313.65C757.52 309.65 751.32 304.55 746.72 298.35C742.12 292.15 738.72 285.55 736.52 278.55C734.32 271.55 732.87 264.95 732.17 258.75C731.57 252.45 731.27 247.35 731.27 243.45V153H767.87V231C767.87 236 768.22 241.65 768.92 247.95C769.62 254.15 771.22 260.15 773.72 265.95C776.32 271.65 780.12 276.35 785.12 280.05C790.22 283.75 797.07 285.6 805.67 285.6C810.27 285.6 814.82 284.85 819.32 283.35C823.82 281.85 827.87 279.3 831.47 275.7C835.17 272 838.12 266.95 840.32 260.55C842.52 254.15 843.62 246.05 843.62 236.25L865.07 245.4C865.07 259.2 862.37 271.7 856.97 282.9C851.67 294.1 843.82 303.05 833.42 309.75C823.02 316.35 810.22 319.65 795.02 319.65ZM847.97 315V264.75H843.62V153H879.92V315H847.97ZM1017.01 315C1006.31 317 995.813 317.85 985.513 317.55C975.313 317.35 966.163 315.5 958.063 312C949.963 308.4 943.813 302.75 939.612 295.05C935.913 288.05 933.963 280.9 933.763 273.6C933.563 266.3 933.463 258.05 933.463 248.85V108H969.463V246.75C969.463 253.25 969.513 258.95 969.613 263.85C969.813 268.75 970.863 272.75 972.763 275.85C976.363 281.85 982.113 285.2 990.013 285.9C997.913 286.6 1006.91 286.2 1017.01 284.7V315ZM904.063 181.35V153H1017.01V181.35H904.063ZM1115.19 319.5C1098.99 319.5 1084.84 315.85 1072.74 308.55C1060.64 301.25 1051.24 291.2 1044.54 278.4C1037.94 265.5 1034.64 250.7 1034.64 234C1034.64 217 1038.04 202.1 1044.84 189.3C1051.64 176.5 1061.09 166.5 1073.19 159.3C1085.29 152.1 1099.29 148.5 1115.19 148.5C1131.49 148.5 1145.69 152.15 1157.79 159.45C1169.89 166.75 1179.29 176.85 1185.99 189.75C1192.69 202.55 1196.04 217.3 1196.04 234C1196.04 250.8 1192.64 265.65 1185.84 278.55C1179.14 291.35 1169.74 301.4 1157.64 308.7C1145.54 315.9 1131.39 319.5 1115.19 319.5ZM1115.19 285.6C1129.59 285.6 1140.29 280.8 1147.29 271.2C1154.29 261.6 1157.79 249.2 1157.79 234C1157.79 218.3 1154.24 205.8 1147.14 196.5C1140.04 187.1 1129.39 182.4 1115.19 182.4C1105.49 182.4 1097.49 184.6 1091.19 189C1084.99 193.3 1080.39 199.35 1077.39 207.15C1074.39 214.85 1072.89 223.8 1072.89 234C1072.89 249.7 1076.44 262.25 1083.54 271.65C1090.74 280.95 1101.29 285.6 1115.19 285.6ZM1423.64 315V216.6C1423.64 205.5 1420.89 196.85 1415.39 190.65C1409.89 184.35 1402.44 181.2 1393.04 181.2C1387.24 181.2 1382.04 182.55 1377.44 185.25C1372.84 187.85 1369.19 191.75 1366.49 196.95C1363.79 202.05 1362.44 208.15 1362.44 215.25L1346.39 205.8C1346.29 194.6 1348.79 184.75 1353.89 176.25C1359.09 167.65 1366.09 160.95 1374.89 156.15C1383.69 151.35 1393.49 148.95 1404.29 148.95C1422.19 148.95 1435.89 154.35 1445.39 165.15C1454.99 175.85 1459.79 189.95 1459.79 207.45V315H1423.64ZM1228.79 315V153H1260.74V203.25H1265.24V315H1228.79ZM1326.44 315V217.05C1326.44 205.75 1323.69 196.95 1318.19 190.65C1312.69 184.35 1305.19 181.2 1295.69 181.2C1286.49 181.2 1279.09 184.35 1273.49 190.65C1267.99 196.95 1265.24 205.15 1265.24 215.25L1249.04 204.45C1249.04 193.95 1251.64 184.5 1256.84 176.1C1262.04 167.7 1269.04 161.1 1277.84 156.3C1286.74 151.4 1296.69 148.95 1307.69 148.95C1319.79 148.95 1329.89 151.55 1337.99 156.75C1346.19 161.85 1352.29 168.85 1356.29 177.75C1360.39 186.55 1362.44 196.5 1362.44 207.6V315H1326.44ZM1544.22 319.5C1532.52 319.5 1522.62 317.3 1514.52 312.9C1506.42 308.4 1500.27 302.45 1496.07 295.05C1491.97 287.65 1489.92 279.5 1489.92 270.6C1489.92 262.8 1491.22 255.8 1493.82 249.6C1496.42 243.3 1500.42 237.9 1505.82 233.4C1511.22 228.8 1518.22 225.05 1526.82 222.15C1533.32 220.05 1540.92 218.15 1549.62 216.45C1558.42 214.75 1567.92 213.2 1578.12 211.8C1588.42 210.3 1599.17 208.7 1610.37 207L1597.47 214.35C1597.57 203.15 1595.07 194.9 1589.97 189.6C1584.87 184.3 1576.27 181.65 1564.17 181.65C1556.87 181.65 1549.82 183.35 1543.02 186.75C1536.22 190.15 1531.47 196 1528.77 204.3L1495.77 193.95C1499.77 180.25 1507.37 169.25 1518.57 160.95C1529.87 152.65 1545.07 148.5 1564.17 148.5C1578.57 148.5 1591.22 150.85 1602.12 155.55C1613.12 160.25 1621.27 167.95 1626.57 178.65C1629.47 184.35 1631.22 190.2 1631.82 196.2C1632.42 202.1 1632.72 208.55 1632.72 215.55V315H1601.07V279.9L1606.32 285.6C1599.02 297.3 1590.47 305.9 1580.67 311.4C1570.97 316.8 1558.82 319.5 1544.22 319.5ZM1551.42 290.7C1559.62 290.7 1566.62 289.25 1572.42 286.35C1578.22 283.45 1582.82 279.9 1586.22 275.7C1589.72 271.5 1592.07 267.55 1593.27 263.85C1595.17 259.25 1596.22 254 1596.42 248.1C1596.72 242.1 1596.87 237.25 1596.87 233.55L1607.97 236.85C1597.07 238.55 1587.72 240.05 1579.92 241.35C1572.12 242.65 1565.42 243.9 1559.82 245.1C1554.22 246.2 1549.27 247.45 1544.97 248.85C1540.77 250.35 1537.22 252.1 1534.32 254.1C1531.42 256.1 1529.17 258.4 1527.57 261C1526.07 263.6 1525.32 266.65 1525.32 270.15C1525.32 274.15 1526.32 277.7 1528.32 280.8C1530.32 283.8 1533.22 286.2 1537.02 288C1540.92 289.8 1545.72 290.7 1551.42 290.7Z" fill="white"/>
</svg>
