<svg width="183" height="40" viewBox="0 0 183 40" fill="none" xmlns="http://www.w3.org/2000/svg">
<rect width="183" height="40" rx="8" fill="#09142F"/>
<path d="M16.6333 28.1785C12.226 25.9748 9.99983 22.3726 10 17.445C10.0003 8.07246 33.9997 8.07246 34 17.445C34.0002 22.3726 31.774 25.9748 27.3667 28.1785C23.6176 30.0531 20.3824 30.0531 16.6333 28.1785Z" fill="#DB475E"/>
<ellipse cx="16.8587" cy="18.9477" rx="2.14669" ry="3.22004" fill="white"/>
<ellipse cx="27.1628" cy="18.9477" rx="2.14669" ry="3.22004" fill="white"/>
<path d="M43.28 25V13.48H45.208V25H43.28ZM53.2604 25V20.84C53.2604 20.568 53.2417 20.2667 53.2044 19.936C53.167 19.6053 53.079 19.288 52.9404 18.984C52.807 18.6747 52.6044 18.4213 52.3324 18.224C52.0657 18.0267 51.703 17.928 51.2444 17.928C50.999 17.928 50.7564 17.968 50.5164 18.048C50.2764 18.128 50.0577 18.2667 49.8604 18.464C49.6684 18.656 49.5137 18.9227 49.3964 19.264C49.279 19.6 49.2204 20.032 49.2204 20.56L48.0764 20.072C48.0764 19.336 48.2177 18.6693 48.5004 18.072C48.7884 17.4747 49.2097 17 49.7644 16.648C50.319 16.2907 51.0017 16.112 51.8124 16.112C52.4524 16.112 52.9804 16.2187 53.3964 16.432C53.8124 16.6453 54.143 16.9173 54.3884 17.248C54.6337 17.5787 54.815 17.9307 54.9324 18.304C55.0497 18.6773 55.1244 19.032 55.1564 19.368C55.1937 19.6987 55.2124 19.968 55.2124 20.176V25H53.2604ZM47.2684 25V16.36H48.9884V19.04H49.2204V25H47.2684ZM60.316 25.24C59.2493 25.24 58.3827 25 57.716 24.52C57.0493 24.04 56.644 23.3653 56.5 22.496L58.468 22.192C58.5693 22.6187 58.7933 22.9547 59.14 23.2C59.4867 23.4453 59.924 23.568 60.452 23.568C60.916 23.568 61.2733 23.4773 61.524 23.296C61.78 23.1093 61.908 22.856 61.908 22.536C61.908 22.3387 61.86 22.1813 61.764 22.064C61.6733 21.9413 61.4707 21.824 61.156 21.712C60.8413 21.6 60.3587 21.4587 59.708 21.288C58.9827 21.096 58.4067 20.8907 57.98 20.672C57.5533 20.448 57.2467 20.184 57.06 19.88C56.8733 19.576 56.78 19.208 56.78 18.776C56.78 18.2373 56.9213 17.768 57.204 17.368C57.4867 16.968 57.8813 16.6613 58.388 16.448C58.8947 16.2293 59.492 16.12 60.18 16.12C60.852 16.12 61.4467 16.224 61.964 16.432C62.4867 16.64 62.908 16.936 63.228 17.32C63.548 17.704 63.7453 18.1547 63.82 18.672L61.852 19.024C61.804 18.656 61.636 18.3653 61.348 18.152C61.0653 17.9387 60.6867 17.8187 60.212 17.792C59.7587 17.7653 59.3933 17.8347 59.116 18C58.8387 18.16 58.7 18.3867 58.7 18.68C58.7 18.8453 58.756 18.9867 58.868 19.104C58.98 19.2213 59.204 19.3387 59.54 19.456C59.8813 19.5733 60.388 19.7173 61.06 19.888C61.748 20.064 62.2973 20.2667 62.708 20.496C63.124 20.72 63.4227 20.9893 63.604 21.304C63.7907 21.6187 63.884 22 63.884 22.448C63.884 23.3173 63.5667 24 62.932 24.496C62.3027 24.992 61.4307 25.24 60.316 25.24ZM70.3803 25C69.8096 25.1067 69.2496 25.152 68.7003 25.136C68.1563 25.1253 67.6683 25.0267 67.2363 24.84C66.8043 24.648 66.4763 24.3467 66.2523 23.936C66.0549 23.5627 65.9509 23.1813 65.9403 22.792C65.9296 22.4027 65.9243 21.9627 65.9243 21.472V13.96H67.8443V21.36C67.8443 21.7067 67.8469 22.0107 67.8523 22.272C67.8629 22.5333 67.9189 22.7467 68.0203 22.912C68.2123 23.232 68.5189 23.4107 68.9403 23.448C69.3616 23.4853 69.8416 23.464 70.3803 23.384V25ZM64.3563 17.872V16.36H70.3803V17.872H64.3563ZM74.3341 25.24C73.7101 25.24 73.1821 25.1227 72.7501 24.888C72.3181 24.648 71.9901 24.3307 71.7661 23.936C71.5475 23.5413 71.4381 23.1067 71.4381 22.632C71.4381 22.216 71.5075 21.8427 71.6461 21.512C71.7848 21.176 71.9981 20.888 72.2861 20.648C72.5741 20.4027 72.9475 20.2027 73.4061 20.048C73.7528 19.936 74.1581 19.8347 74.6221 19.744C75.0915 19.6533 75.5981 19.5707 76.1421 19.496C76.6915 19.416 77.2648 19.3307 77.8621 19.24L77.1741 19.632C77.1795 19.0347 77.0461 18.5947 76.7741 18.312C76.5021 18.0293 76.0435 17.888 75.3981 17.888C75.0088 17.888 74.6328 17.9787 74.2701 18.16C73.9075 18.3413 73.6541 18.6533 73.5101 19.096L71.7501 18.544C71.9635 17.8133 72.3688 17.2267 72.9661 16.784C73.5688 16.3413 74.3795 16.12 75.3981 16.12C76.1661 16.12 76.8408 16.2453 77.4221 16.496C78.0088 16.7467 78.4435 17.1573 78.7261 17.728C78.8808 18.032 78.9741 18.344 79.0061 18.664C79.0381 18.9787 79.0541 19.3227 79.0541 19.696V25H77.3661V23.128L77.6461 23.432C77.2568 24.056 76.8008 24.5147 76.2781 24.808C75.7608 25.096 75.1128 25.24 74.3341 25.24ZM74.7181 23.704C75.1555 23.704 75.5288 23.6267 75.8381 23.472C76.1475 23.3173 76.3928 23.128 76.5741 22.904C76.7608 22.68 76.8861 22.4693 76.9501 22.272C77.0515 22.0267 77.1075 21.7467 77.1181 21.432C77.1341 21.112 77.1421 20.8533 77.1421 20.656L77.7341 20.832C77.1528 20.9227 76.6541 21.0027 76.2381 21.072C75.8221 21.1413 75.4648 21.208 75.1661 21.272C74.8675 21.3307 74.6035 21.3973 74.3741 21.472C74.1501 21.552 73.9608 21.6453 73.8061 21.752C73.6515 21.8587 73.5315 21.9813 73.4461 22.12C73.3661 22.2587 73.3261 22.4213 73.3261 22.608C73.3261 22.8213 73.3795 23.0107 73.4861 23.176C73.5928 23.336 73.7475 23.464 73.9501 23.56C74.1581 23.656 74.4141 23.704 74.7181 23.704ZM80.9769 25V13.24H82.9049V25H80.9769ZM85.1413 25V13.24H87.0693V25H85.1413ZM95.8447 25.24C94.9807 25.24 94.2261 25.0453 93.5807 24.656C92.9354 24.2667 92.4341 23.7307 92.0767 23.048C91.7247 22.36 91.5487 21.5707 91.5487 20.68C91.5487 19.7733 91.7301 18.9787 92.0927 18.296C92.4554 17.6133 92.9594 17.08 93.6047 16.696C94.2501 16.312 94.9967 16.12 95.8447 16.12C96.7141 16.12 97.4714 16.3147 98.1167 16.704C98.7621 17.0933 99.2634 17.632 99.6207 18.32C99.9781 19.0027 100.157 19.7893 100.157 20.68C100.157 21.576 99.9754 22.368 99.6127 23.056C99.2554 23.7387 98.7541 24.2747 98.1087 24.664C97.4634 25.048 96.7087 25.24 95.8447 25.24ZM95.8447 23.432C96.6127 23.432 97.1834 23.176 97.5567 22.664C97.9301 22.152 98.1167 21.4907 98.1167 20.68C98.1167 19.8427 97.9274 19.176 97.5487 18.68C97.1701 18.1787 96.6021 17.928 95.8447 17.928C95.3274 17.928 94.9007 18.0453 94.5647 18.28C94.2341 18.5093 93.9887 18.832 93.8287 19.248C93.6687 19.6587 93.5887 20.136 93.5887 20.68C93.5887 21.5173 93.7781 22.1867 94.1567 22.688C94.5407 23.184 95.1034 23.432 95.8447 23.432ZM107.575 25V20.84C107.575 20.568 107.557 20.2667 107.519 19.936C107.482 19.6053 107.394 19.288 107.255 18.984C107.122 18.6747 106.919 18.4213 106.647 18.224C106.381 18.0267 106.018 17.928 105.559 17.928C105.314 17.928 105.071 17.968 104.831 18.048C104.591 18.128 104.373 18.2667 104.175 18.464C103.983 18.656 103.829 18.9227 103.711 19.264C103.594 19.6 103.535 20.032 103.535 20.56L102.391 20.072C102.391 19.336 102.533 18.6693 102.815 18.072C103.103 17.4747 103.525 17 104.079 16.648C104.634 16.2907 105.317 16.112 106.127 16.112C106.767 16.112 107.295 16.2187 107.711 16.432C108.127 16.6453 108.458 16.9173 108.703 17.248C108.949 17.5787 109.13 17.9307 109.247 18.304C109.365 18.6773 109.439 19.032 109.471 19.368C109.509 19.6987 109.527 19.968 109.527 20.176V25H107.575ZM101.583 25V16.36H103.303V19.04H103.535V25H101.583ZM113.378 25L117.01 13.48H119.834L123.466 25H121.482L118.186 14.664H118.618L115.362 25H113.378ZM115.402 22.504V20.704H121.45V22.504H115.402ZM127.833 25.248C127.193 25.248 126.665 25.1413 126.249 24.928C125.833 24.7147 125.502 24.4427 125.257 24.112C125.011 23.7813 124.83 23.4293 124.713 23.056C124.595 22.6827 124.518 22.3307 124.481 22C124.449 21.664 124.433 21.392 124.433 21.184V16.36H126.385V20.52C126.385 20.7867 126.403 21.088 126.441 21.424C126.478 21.7547 126.563 22.0747 126.697 22.384C126.835 22.688 127.038 22.9387 127.305 23.136C127.577 23.3333 127.942 23.432 128.401 23.432C128.646 23.432 128.889 23.392 129.129 23.312C129.369 23.232 129.585 23.096 129.777 22.904C129.974 22.7067 130.131 22.4373 130.249 22.096C130.366 21.7547 130.425 21.3227 130.425 20.8L131.569 21.288C131.569 22.024 131.425 22.6907 131.137 23.288C130.854 23.8853 130.435 24.3627 129.881 24.72C129.326 25.072 128.643 25.248 127.833 25.248ZM130.657 25V22.32H130.425V16.36H132.361V25H130.657ZM139.352 25C138.781 25.1067 138.221 25.152 137.672 25.136C137.128 25.1253 136.64 25.0267 136.208 24.84C135.776 24.648 135.448 24.3467 135.224 23.936C135.027 23.5627 134.923 23.1813 134.912 22.792C134.901 22.4027 134.896 21.9627 134.896 21.472V13.96H136.816V21.36C136.816 21.7067 136.819 22.0107 136.824 22.272C136.835 22.5333 136.891 22.7467 136.992 22.912C137.184 23.232 137.491 23.4107 137.912 23.448C138.333 23.4853 138.813 23.464 139.352 23.384V25ZM133.328 17.872V16.36H139.352V17.872H133.328ZM144.268 25.24C143.404 25.24 142.65 25.0453 142.004 24.656C141.359 24.2667 140.858 23.7307 140.5 23.048C140.148 22.36 139.972 21.5707 139.972 20.68C139.972 19.7733 140.154 18.9787 140.516 18.296C140.879 17.6133 141.383 17.08 142.028 16.696C142.674 16.312 143.42 16.12 144.268 16.12C145.138 16.12 145.895 16.3147 146.54 16.704C147.186 17.0933 147.687 17.632 148.044 18.32C148.402 19.0027 148.58 19.7893 148.58 20.68C148.58 21.576 148.399 22.368 148.036 23.056C147.679 23.7387 147.178 24.2747 146.532 24.664C145.887 25.048 145.132 25.24 144.268 25.24ZM144.268 23.432C145.036 23.432 145.607 23.176 145.98 22.664C146.354 22.152 146.54 21.4907 146.54 20.68C146.54 19.8427 146.351 19.176 145.972 18.68C145.594 18.1787 145.026 17.928 144.268 17.928C143.751 17.928 143.324 18.0453 142.988 18.28C142.658 18.5093 142.412 18.832 142.252 19.248C142.092 19.6587 142.012 20.136 142.012 20.68C142.012 21.5173 142.202 22.1867 142.58 22.688C142.964 23.184 143.527 23.432 144.268 23.432ZM160.399 25V19.752C160.399 19.16 160.252 18.6987 159.959 18.368C159.666 18.032 159.268 17.864 158.767 17.864C158.458 17.864 158.18 17.936 157.935 18.08C157.69 18.2187 157.495 18.4267 157.351 18.704C157.207 18.976 157.135 19.3013 157.135 19.68L156.279 19.176C156.274 18.5787 156.407 18.0533 156.679 17.6C156.956 17.1413 157.33 16.784 157.799 16.528C158.268 16.272 158.791 16.144 159.367 16.144C160.322 16.144 161.052 16.432 161.559 17.008C162.071 17.5787 162.327 18.3307 162.327 19.264V25H160.399ZM150.007 25V16.36H151.711V19.04H151.951V25H150.007ZM155.215 25V19.776C155.215 19.1733 155.068 18.704 154.775 18.368C154.482 18.032 154.082 17.864 153.575 17.864C153.084 17.864 152.69 18.032 152.391 18.368C152.098 18.704 151.951 19.1413 151.951 19.68L151.087 19.104C151.087 18.544 151.226 18.04 151.503 17.592C151.78 17.144 152.154 16.792 152.623 16.536C153.098 16.2747 153.628 16.144 154.215 16.144C154.86 16.144 155.399 16.2827 155.831 16.56C156.268 16.832 156.594 17.2053 156.807 17.68C157.026 18.1493 157.135 18.68 157.135 19.272V25H155.215ZM166.51 25.24C165.886 25.24 165.358 25.1227 164.926 24.888C164.494 24.648 164.166 24.3307 163.942 23.936C163.723 23.5413 163.614 23.1067 163.614 22.632C163.614 22.216 163.683 21.8427 163.822 21.512C163.96 21.176 164.174 20.888 164.462 20.648C164.75 20.4027 165.123 20.2027 165.582 20.048C165.928 19.936 166.334 19.8347 166.798 19.744C167.267 19.6533 167.774 19.5707 168.318 19.496C168.867 19.416 169.44 19.3307 170.038 19.24L169.35 19.632C169.355 19.0347 169.222 18.5947 168.95 18.312C168.678 18.0293 168.219 17.888 167.574 17.888C167.184 17.888 166.808 17.9787 166.446 18.16C166.083 18.3413 165.83 18.6533 165.686 19.096L163.926 18.544C164.139 17.8133 164.544 17.2267 165.142 16.784C165.744 16.3413 166.555 16.12 167.574 16.12C168.342 16.12 169.016 16.2453 169.598 16.496C170.184 16.7467 170.619 17.1573 170.902 17.728C171.056 18.032 171.15 18.344 171.182 18.664C171.214 18.9787 171.23 19.3227 171.23 19.696V25H169.542V23.128L169.822 23.432C169.432 24.056 168.976 24.5147 168.454 24.808C167.936 25.096 167.288 25.24 166.51 25.24ZM166.894 23.704C167.331 23.704 167.704 23.6267 168.014 23.472C168.323 23.3173 168.568 23.128 168.75 22.904C168.936 22.68 169.062 22.4693 169.126 22.272C169.227 22.0267 169.283 21.7467 169.294 21.432C169.31 21.112 169.318 20.8533 169.318 20.656L169.91 20.832C169.328 20.9227 168.83 21.0027 168.414 21.072C167.998 21.1413 167.64 21.208 167.342 21.272C167.043 21.3307 166.779 21.3973 166.55 21.472C166.326 21.552 166.136 21.6453 165.982 21.752C165.827 21.8587 165.707 21.9813 165.622 22.12C165.542 22.2587 165.502 22.4213 165.502 22.608C165.502 22.8213 165.555 23.0107 165.662 23.176C165.768 23.336 165.923 23.464 166.126 23.56C166.334 23.656 166.59 23.704 166.894 23.704Z" fill="white"/>
</svg>
