<svg width="441" height="192" viewBox="0 0 441 192" fill="none" xmlns="http://www.w3.org/2000/svg">
<path d="M116 118H110V68C110 65.3478 108.946 62.8043 107.071 60.9289C105.196 59.0536 102.652 58 100 58H28C25.3478 58 22.8043 59.0536 20.9289 60.9289C19.0536 62.8043 18 65.3478 18 68V118H12C11.4696 118 10.9609 118.211 10.5858 118.586C10.2107 118.961 10 119.47 10 120V128C10 130.652 11.0536 133.196 12.9289 135.071C14.8043 136.946 17.3478 138 20 138H108C110.652 138 113.196 136.946 115.071 135.071C116.946 133.196 118 130.652 118 128V120C118 119.47 117.789 118.961 117.414 118.586C117.039 118.211 116.53 118 116 118ZM22 68C22 66.4087 22.6321 64.8826 23.7574 63.7574C24.8826 62.6321 26.4087 62 28 62H100C101.591 62 103.117 62.6321 104.243 63.7574C105.368 64.8826 106 66.4087 106 68V118H22V68ZM114 128C114 129.591 113.368 131.117 112.243 132.243C111.117 133.368 109.591 134 108 134H20C18.4087 134 16.8826 133.368 15.7574 132.243C14.6321 131.117 14 129.591 14 128V122H114V128ZM74 76C74 76.5304 73.7893 77.0391 73.4142 77.4142C73.0391 77.7893 72.5304 78 72 78H56C55.4696 78 54.9609 77.7893 54.5858 77.4142C54.2107 77.0391 54 76.5304 54 76C54 75.4696 54.2107 74.9609 54.5858 74.5858C54.9609 74.2107 55.4696 74 56 74H72C72.5304 74 73.0391 74.2107 73.4142 74.5858C73.7893 74.9609 74 75.4696 74 76Z" fill="black" fill-opacity="0.75"/>
<path d="M134.934 98.9601C135.053 98.9537 135.533 98.9692 135.741 98.9665C135.505 99.0335 134.503 98.9831 134.934 98.9601ZM156.262 94.0896C156.09 94.1062 155.917 94.1227 155.745 94.1393C156.235 94.1501 156.894 94.1379 157.349 94.1537C157.423 94.1563 157.23 94.2043 157.406 94.2065C157.583 94.2086 157.549 94.143 157.805 94.136C158.092 94.1283 159.408 94.174 159.863 94.1729C161.567 94.1685 163.286 94.131 164.993 94.1582C163.231 94.2068 165.007 94.2562 165.501 94.2352C165.61 94.2303 165.593 94.1083 167.361 94.139C168.485 94.1585 167.447 94.3329 169.323 94.2455C167.88 94.1235 169.299 94.1321 170.429 94.128C170.624 94.1273 172.198 94.1456 172.893 94.1402C173.131 94.1384 173.494 94.0745 173.809 94.0728C174.026 94.0717 174.191 94.1066 174.513 94.1048C176.016 94.097 177.495 94.0943 179 94.1061C178.12 94.2702 179.691 94.176 179.762 94.1839C180.12 94.2285 178.498 94.2412 179.139 94.269C180.036 94.2639 180.933 94.2589 181.83 94.2538C181.094 94.2336 182.804 94.1155 183.119 94.1692C182.98 94.0242 187.206 94.2955 187.849 94.2471C187.983 94.2368 187.106 94.1651 189.141 94.1979C189.361 94.2016 189.278 94.2453 189.393 94.2413C189.462 94.2388 189.881 94.0997 190.327 94.1766C190.49 94.2046 189.448 94.296 191.737 94.2593C190.825 94.1177 194.912 94.1826 195.664 94.2181C195.513 94.199 195.363 94.18 195.213 94.161C195.956 94.2123 196.09 94.1642 196.258 94.1668C196.933 94.1773 197.86 94.2259 198.489 94.2214C199.224 94.2163 199.227 94.1283 200.084 94.1625C199.881 94.1431 199.677 94.1237 199.474 94.1042C200.066 94.1089 200.658 94.1136 201.25 94.1183C199.879 94.2348 201.546 94.1238 201.656 94.1213C201.831 94.1171 201.579 94.1648 201.872 94.1589C201.903 94.1579 201.859 94.1129 202.31 94.1079C203.254 94.0975 203.105 94.154 203.501 94.1534C203.537 94.1531 203.41 94.1126 204.094 94.103C206.269 94.0725 204.083 94.134 204 94.1396C203.89 94.147 204.636 94.3162 202.789 94.2562C203.409 94.2753 203.472 94.3502 203.541 94.352C203.603 94.3536 204.678 94.343 204.737 94.3404C205.265 94.315 204.8 94.2639 204.903 94.2547C204.988 94.2473 206.282 94.314 206.586 94.1601C207.205 94.302 206.229 94.289 205.191 94.3108C205.039 94.34 206.18 94.3683 206.24 94.3682C207.711 94.368 206.896 94.2512 207.218 94.1766C207.387 94.1375 207.987 94.2172 207.433 94.1125C208.769 94.1014 207.959 94.1621 208.045 94.1711C208.175 94.1843 208.642 94.1543 208.701 94.1582C208.787 94.1642 208.488 94.2004 208.827 94.2132C208.883 94.215 209.429 94.1527 208.725 94.1228C209.665 94.1317 209.587 94.0785 209.906 94.1857C210.553 93.9829 210.376 94.3056 210.631 94.3169C211.308 94.3469 211.112 94.1877 211.147 94.1799C211.394 94.1302 213.27 94.1849 213.735 94.1619C213.551 94.2766 212.247 94.1632 211.956 94.1854C210.984 94.2594 213.326 94.2427 212.62 94.3868C212.916 94.3473 213.212 94.3077 213.508 94.2681C214.051 94.3608 213.281 94.4012 214.741 94.3673C214.98 94.2873 213.709 94.3799 213.964 94.3169C214.114 94.28 214.961 94.272 214.977 94.2526C214.994 94.2291 214.229 94.2569 214.349 94.2208C214.613 94.1429 217.404 94.2171 215.279 94.2596C215.872 94.2582 216.177 94.4131 216.691 94.3649C217.024 94.3335 215.154 94.1196 217.959 94.1589C218.019 94.232 216.838 94.1805 216.807 94.186C216.764 94.1941 216.978 94.3592 217.015 94.3673C217.145 94.3941 220.01 94.3057 220.615 94.3887C220.376 94.2933 222.78 94.3716 223.042 94.3426C223.112 94.3346 222.851 94.2761 222.926 94.2699C223.391 94.2331 224.648 94.3374 225.232 94.3401C225.885 94.3432 225.802 94.2927 225.838 94.2928C226.126 94.2957 225.896 94.3299 226.072 94.3298C226.337 94.3296 228.16 94.3366 228.252 94.3295C228.279 94.3272 227.981 94.2696 228.378 94.2587C228.447 94.2568 228.404 94.3251 229.581 94.2956C230.998 94.2601 228.596 94.2106 229.185 94.139C230.096 94.2409 230.066 94.1399 230.313 94.1479C230.399 94.1508 231.035 94.2366 231.726 94.2312C231.23 94.2451 230.734 94.2591 230.238 94.273C230.726 94.2881 231.673 94.2694 232.074 94.2864C232.27 94.2947 232.109 94.3652 232.534 94.3633C232.625 94.3625 232.983 94.1907 231.868 94.2678C231.779 94.2065 232.31 94.2464 232.556 94.2291C232.593 94.2263 232.74 94.1238 233.054 94.1875C233.13 94.2032 232.308 94.5022 234.427 94.2858C234.496 94.2788 234.258 94.2414 234.325 94.2336C234.371 94.2284 234.912 94.2435 234.971 94.2382C235.033 94.2325 234.771 94.1916 234.844 94.1836C235.217 94.1421 235.707 94.3043 234.938 94.2919C235.195 94.312 235.452 94.332 235.709 94.352C235.434 94.2298 236.113 94.3177 236.469 94.3139C238.75 94.2898 237.222 94.2104 237.615 94.1692C238.245 94.1032 237.764 94.3123 238.7 94.2495C238.786 94.2436 237.655 94.1549 239.864 94.2049C239.538 94.2084 239.212 94.2119 238.886 94.2153C239.074 94.3335 240.064 94.2072 240.14 94.2056C241.008 94.1893 240.421 94.2319 241.709 94.1711C241.825 94.1656 242.075 94.1948 242.321 94.1802C243.341 94.1203 240.975 94.1438 240.911 94.096C240.88 94.0725 243.424 94.0784 243.512 94.0896C243.883 94.1389 242.358 94.1113 242.649 94.1726C242.755 94.1943 246.381 94.1497 247.109 94.1735C247.949 94.2013 248.327 94.3615 248.332 94.1814C248.569 94.3582 248.778 94.2376 248.886 94.2388C250.184 94.2552 250.186 94.257 251.3 94.24C251.546 94.2364 251.753 94.29 251.84 94.2809C251.891 94.2755 251.796 94.2181 252.044 94.2004C252.388 94.1761 254.458 94.2352 254.612 94.2669C254.766 94.2986 253.738 94.2807 253.922 94.3328C254.666 94.3381 255.38 94.3252 256.129 94.3307C256.44 94.3331 256.28 94.3696 256.414 94.3704C256.472 94.3708 257.546 94.3387 257.5 94.3252C257.394 94.2939 254.076 94.3149 254.95 94.251C255.118 94.2387 255.714 94.3228 255.619 94.2205C258.583 94.2437 261.546 94.2669 264.51 94.2901C262.807 94.3666 260.891 94.2982 259.108 94.3053C258.863 94.3062 258.037 94.2964 258.137 94.3481C259.654 94.3615 261.539 94.3345 262.996 94.3682C263.042 94.3693 262.871 94.4158 263.046 94.4232C263.372 94.4369 264.434 94.362 264.613 94.3813C264.644 94.3859 264.039 94.4471 264.223 94.486C264.695 94.5859 264.815 94.3647 265.221 94.3673C265.534 94.3694 267.643 94.4764 268.168 94.4088C268.727 94.3368 266.614 94.367 266.77 94.3081C268.2 94.2489 269.647 94.3121 270.998 94.3047C271.022 94.3046 270.815 94.2584 271.116 94.2519C271.641 94.2407 271.778 94.3062 272.034 94.3166C272.309 94.3278 273.282 94.3184 273.413 94.3423C273.429 94.3454 273.232 94.4103 273.202 94.4122C272.778 94.4389 272.627 94.3547 272.589 94.3536C272.444 94.3504 272.301 94.3827 272.169 94.3807C271.951 94.3775 271.831 94.3477 271.544 94.345C271.346 94.3431 271.537 94.4004 271.346 94.3978C271.276 94.3966 270.519 94.2657 270.449 94.3993C270.427 94.4415 276.615 94.4956 277.234 94.4619C276.703 94.4458 276.173 94.4298 275.642 94.4137C276.719 94.4528 278.014 94.346 278.105 94.504C282.101 94.5169 286.097 94.5299 290.092 94.5428C290.806 94.5562 290.414 94.6578 291.588 94.6282C291.285 94.5959 290.982 94.5635 290.678 94.5312C291.28 94.5539 293.946 94.5982 294.377 94.5773C294.433 94.5745 294.51 94.4826 295.177 94.4747C295.768 94.4678 295.863 94.5366 296.179 94.5498C296.444 94.5607 296.742 94.5426 296.821 94.5464C296.881 94.5495 296.905 94.5916 297.05 94.5989C297.509 94.6216 297.137 94.5031 297.593 94.6392C297.482 94.6444 297.371 94.6496 297.26 94.6548C297.814 94.6745 298.571 94.7363 297.755 94.7668C297.615 94.7721 297.735 94.7313 297.63 94.7314C293.533 94.739 296.805 94.8181 298.241 94.7549C298.61 94.8152 300.676 94.7784 300.745 94.7903C300.84 94.8075 300.487 94.8558 300.95 94.8974C301.048 94.9062 303.811 94.8724 302.816 94.9527C302.61 94.9692 301.286 94.9518 300.966 94.9542C301.718 95.0821 303.479 94.8988 303.677 94.9035C304.476 94.9235 302.142 95.0144 303.942 95.0293C305.326 95.0407 304.027 94.9552 304.559 94.9188C304.858 94.8983 306.425 94.9924 306.382 94.8706C306.92 94.8575 306.605 94.9221 306.671 94.9267C306.736 94.9308 307.793 94.8943 308.137 94.92C308.178 94.9232 308.047 94.9865 308.09 94.9917C308.174 95.0006 309.193 94.9879 309.234 94.9826C309.26 94.9788 309.017 94.9234 309.117 94.9099C309.234 94.8944 310.215 94.9075 310.269 94.8916C310.345 94.8676 309.134 94.8834 309.336 94.8214C309.894 94.837 310.804 94.7957 311.172 94.7457C311.082 94.76 310.541 94.7621 310.353 94.757C310.441 94.6662 311.603 94.6674 311.206 94.7393C311.458 94.7007 311.286 94.6802 311.428 94.6438C311.466 94.6346 311.824 94.6327 311.894 94.6169C311.903 94.6138 311.532 94.5795 311.606 94.5611C311.741 94.5278 312.829 94.5353 312.918 94.544C313.168 94.5688 312.281 94.5988 312.207 94.6371C312.197 94.643 312.951 94.718 312.963 94.7247C313.007 94.7958 312.167 94.7445 312.263 94.8086C312.471 94.8221 312.678 94.8357 312.886 94.8492C312.085 94.9141 310.604 94.8807 310.222 94.9545C311.409 94.9325 312.652 94.9351 312.649 95.1013C312.648 95.1713 312.136 95.2123 312.156 95.2301C312.231 95.2937 312.942 95.2246 312.969 95.2279C312.99 95.2318 313 95.2356 313 95.2393C313 95.2393 313 95.2393 313 95.2393C313 95.2765 311.986 95.3034 311.936 95.3204C311.85 95.3506 312.301 95.4751 312.301 95.5026C312.285 95.5081 311.563 95.5376 311.807 95.5856C312.053 95.6341 312.685 95.6352 312.707 95.6402C312.828 95.6693 311.723 95.6957 311.69 95.7129C311.672 95.7215 312.266 95.7748 312.283 95.7901C312.298 95.8054 311.847 95.839 311.669 95.8874C311.537 95.9235 311.922 95.9511 311.855 95.9567C311.806 95.9605 310.762 95.9598 310.71 95.9662C310.634 95.9755 310.879 96.0186 310.843 96.0294C310.792 96.0448 310.455 96.0293 310.499 96.0452C310.532 96.0571 311.839 96.2055 311.831 96.2451C311.816 96.3127 310.432 96.1572 311.72 96.424C311.729 96.4257 312.042 96.4068 312.051 96.4084C312.245 96.4575 311.239 96.533 312.469 96.5198C310.182 96.605 312.184 96.6214 311.846 96.7353C311.715 96.779 310.829 96.797 310.825 96.8036C310.911 96.8591 311.193 96.8161 311.289 96.8433C311.342 96.8585 310.549 96.9172 310.727 96.9553C310.82 96.9749 311.662 96.9679 311.696 96.9718C312.029 97.0079 311.621 97.0468 311.694 97.0725C311.743 97.0897 312.251 97.0911 312.264 97.0942C312.285 97.1006 311.596 97.1701 311.452 97.1946C311.343 97.2134 311.753 97.2428 311.676 97.251C311.217 97.3 310.24 97.175 311.182 97.3502C311.239 97.3609 311.595 97.3566 311.606 97.3587C311.826 97.4084 311.17 97.4127 311.053 97.4534C310.851 97.5234 311.794 97.4844 311.01 97.5336C311.598 97.5794 311.926 97.5775 312.614 97.5647C310.709 97.6004 310.036 97.7817 312.151 97.7772C311.479 97.7743 311.553 97.8767 311.352 97.8785C311.228 97.8795 310.252 97.7777 310.699 98.0061C310.756 98.0346 311.348 97.9983 311.163 98.0567C309.74 98.0418 311.132 98.0939 311.134 98.1016C311.115 98.2361 307.64 98.1259 307.043 98.1412C306.35 98.159 305.735 98.265 305.584 98.2652C305.089 98.2652 305.5 98.2114 305.389 98.1916C305.277 98.172 303.868 98.2751 303.797 98.2694C303.524 98.2467 303.801 98.1829 303.773 98.1797C303.435 98.1406 301.543 98.1906 301.013 98.1757C301.029 98.2171 302.093 98.2204 301.429 98.2868C300.655 98.3643 300.611 98.1819 300.591 98.1739C297.048 98.1756 293.504 98.1774 289.961 98.1791C290.005 98.2761 292.322 98.2029 292.374 98.2157C292.684 98.2913 288.771 98.2899 288.291 98.2557C288.655 98.2767 289.02 98.2976 289.385 98.3186C288.762 98.4301 287.384 98.2852 286.483 98.3344C286.192 98.3504 286.751 98.3934 286.739 98.3964C286.412 98.4397 285.888 98.4063 286.28 98.3482C285.482 98.4039 285.598 98.3424 284.986 98.3378C284.954 98.3376 285.217 98.3826 284.732 98.4013C284.505 98.41 283.294 98.4101 283.132 98.4495C283.065 98.4661 283.679 98.6406 283.755 98.4904C285.073 98.5636 284.176 98.4219 284.688 98.4254C284.767 98.4262 284.586 98.51 285.875 98.4705C285.629 98.6218 284.145 98.5087 283.891 98.527C283.366 98.5647 285.528 98.6427 285.925 98.5249C285.74 98.6429 286.078 98.5408 286.56 98.5456C287.088 98.5509 286.858 98.586 287.143 98.5862C287.924 98.5871 287.601 98.5038 288.244 98.5789C287.617 98.3464 289.346 98.5482 289.85 98.6091C289.03 98.6209 288.21 98.6327 287.39 98.6445C287.437 98.6567 287.484 98.6689 287.531 98.6811C287.315 98.6794 287.099 98.6777 286.883 98.6759C286.917 98.6642 286.952 98.6525 286.987 98.6408C285.873 98.7169 285.601 98.6314 285.511 98.6305C284.342 98.6205 282.991 98.6213 281.809 98.621C281.632 98.621 281.754 98.697 280.461 98.6375C280.049 98.6185 280.438 98.5593 279.971 98.5682C279.387 98.729 279.398 98.6008 279.224 98.6006C278.725 98.6006 278.42 98.6404 278.374 98.6408C277.758 98.6471 276.856 98.6404 276.179 98.6463C276.166 98.6469 276.518 98.6964 276.079 98.6817C275.924 98.6765 274.539 98.4656 273.329 98.5343C273.644 98.5486 273.958 98.5628 274.273 98.5771C273.903 98.5572 271.309 98.6103 271.943 98.6668C272.332 98.7013 273.281 98.5653 273.385 98.6961C272.522 98.6569 267.754 98.7155 267.383 98.6851C267.331 98.6808 267.647 98.6383 267.576 98.6329C267.522 98.6288 266.429 98.6388 266.284 98.6225C266.198 98.6128 266.681 98.5868 266.641 98.5716C266.607 98.5607 265.243 98.5425 265.165 98.5957C265.5 98.5743 266.442 98.593 265.948 98.6378C265.884 98.6434 265.555 98.6091 265.478 98.6161C264.762 98.6813 266.902 98.6656 267.233 98.6662C265.889 98.7339 263.81 98.6541 262.253 98.6982C261.624 98.654 263.186 98.6305 262.474 98.5938C260.998 98.5178 262.081 98.655 262.036 98.6607C261.669 98.7053 260.419 98.466 260.419 98.6482C259.883 98.6207 260.057 98.5978 259.301 98.6216C259.401 98.6342 259.5 98.6468 259.599 98.6595C258.761 98.765 256.985 98.4988 257.118 98.4785C257.476 98.4241 258.401 98.5089 258.479 98.5069C258.596 98.5038 258.919 98.319 260.199 98.4843C260.722 98.3603 258.171 98.4006 259.332 98.3161C258.548 98.33 255.323 98.2437 254.859 98.2981C254.803 98.3052 255.061 98.4287 254.265 98.3659C253.886 98.3359 254.798 98.3345 254.625 98.3064C254.093 98.22 246.849 98.2752 245.473 98.2798C245.384 98.2799 245.417 98.2416 245.329 98.242C245.059 98.243 244.077 98.3002 243.594 98.2826C244.594 98.3535 242.652 98.359 242.159 98.3512C241.409 98.3393 241.455 98.2719 241.132 98.2575C239.883 98.2022 237.949 98.3624 236.98 98.2127C237.033 98.3613 235.303 98.1398 234.516 98.1385C233.899 98.1374 233.005 98.2358 233.837 98.2957C232.773 98.2888 231.652 98.3166 230.654 98.3256C230.489 98.3271 230.716 98.2832 230.435 98.2871C230.409 98.2878 230.374 98.3309 230.132 98.3353C228.136 98.3729 229.107 98.2814 228.734 98.2545C228.525 98.2394 228.371 98.2319 228.258 98.2294C229.421 98.221 230.763 98.2041 231.122 98.2029C230.816 98.1078 228.543 98.2212 227.878 98.1956C227.855 98.1946 227.935 98.1422 227.912 98.1419C227.911 98.1419 227.911 98.1419 227.91 98.1419C227.661 98.1378 226.072 98.1572 226.399 98.2197C226.487 98.2364 227.218 98.2363 228.085 98.2307C227.851 98.2424 228.026 98.3011 227.985 98.3036C227.482 98.3326 226.252 98.2753 225.816 98.2676C225.716 98.2659 225.723 98.3035 225.707 98.3036C225.31 98.2951 225.472 98.1877 225.065 98.2984C224.346 98.1646 226.412 98.2785 226.267 98.1916C226.155 98.1247 221.566 98.1606 221.58 98.2661C221.564 98.2548 221.501 98.2408 221.372 98.2249C221.085 98.1895 219.807 98.2006 219.587 98.22C219.55 98.2238 219.565 98.3262 219.518 98.3271C219.403 98.3295 217.842 98.2492 217.259 98.3097C217.574 98.3241 217.889 98.3384 218.204 98.3527C216.302 98.3536 216.596 98.3841 217.23 98.4147C217.261 98.415 217.292 98.4189 217.322 98.4193C217.813 98.4419 218.443 98.4637 218.452 98.4718C218.488 98.5026 215.262 98.5197 215.883 98.4248C215.969 98.4118 217.462 98.4541 216.723 98.3863C216.594 98.3744 215.635 98.3938 215.585 98.3863C215.248 98.3367 217.341 98.2707 217.085 98.2002C216.577 98.2673 215.925 98.2319 215.343 98.2493C215.077 98.2571 215.012 98.3084 214.98 98.3094C214.491 98.3228 214.765 98.269 214.602 98.2703C214.514 98.2713 213.551 98.3858 213.733 98.2279C210.559 98.344 212.855 98.3439 214.802 98.335C214.187 98.3925 212.981 98.3647 212.44 98.3781C212.245 98.3829 212.36 98.4356 212.032 98.4461C211.357 98.4678 208.134 98.4073 207.294 98.393C207.81 98.3744 207.659 98.317 207.261 98.321C206.863 98.325 207.197 98.4016 207.12 98.4098C207.036 98.4183 205.169 98.3822 204.858 98.3921C206.264 98.3644 205.947 98.3072 204.753 98.3012C204.926 98.2847 205.098 98.2682 205.271 98.2517C204.571 98.2749 203.101 98.1876 202.696 98.2136C202.633 98.2178 202.861 98.2659 202.825 98.2682C202.47 98.2886 201.264 98.2396 201.208 98.256C201.16 98.2697 201.675 98.31 201.484 98.3299C201.444 98.334 200.947 98.269 200.459 98.285C200.277 98.2909 200.387 98.3364 200.341 98.339C199.96 98.3609 200.185 98.2843 199.489 98.2966C198.979 98.3057 198.6 98.3806 197.895 98.3558C200.208 98.4513 198.264 98.4114 197.297 98.4403C197.142 98.4449 197.274 98.5275 196.348 98.4873C198.319 98.338 195.786 98.4084 195.268 98.4068C195.24 98.4063 195.23 98.3518 194.976 98.3509C194.954 98.351 194.985 98.3878 194.749 98.3906C192.509 98.4172 193.942 98.3756 193.516 98.3393C193.335 98.3238 192.246 98.3759 191.952 98.3772C191.885 98.3773 191.916 98.339 191.655 98.3405C191.193 98.3433 190.779 98.384 190.475 98.3872C190.439 98.3874 190.438 98.3271 189.86 98.3466C189.697 98.3521 189.515 98.3735 189.746 98.3909C190.511 98.448 191.962 98.3492 192.827 98.4062C193.615 98.458 191.129 98.4629 191 98.4632C190.952 98.4634 191.438 98.4334 190.944 98.4275C190.523 98.4226 189.753 98.5268 189.125 98.5041C189.077 98.5024 188.576 98.4141 188.599 98.4089C188.62 98.4051 189.39 98.3859 189.278 98.3604C189.265 98.3575 188.775 98.3581 188.711 98.339C188.633 98.3158 188.422 98.0884 188.317 98.0827C188.049 98.0686 188.224 98.1204 188.05 98.1168C187.678 98.1092 186.387 98.042 186.345 98.1208C186.558 98.1255 186.772 98.1302 186.985 98.1348C185.798 98.1429 186.304 98.1765 186.136 98.1913C185.955 98.2073 186.006 98.138 185.606 98.1315C185.519 98.1301 183.845 98.1445 183.876 98.1736C184.801 98.1273 184.458 98.213 184.501 98.2145C184.663 98.2201 184.87 98.172 185.088 98.173C186.618 98.1805 185.075 98.2563 185.436 98.2758C185.56 98.2824 185.808 98.2414 185.861 98.2435C186.032 98.2503 186.035 98.304 186.149 98.2996C186.416 98.2896 186.105 98.2136 186.126 98.2096C186.364 98.1621 187.299 98.2212 186.717 98.3039C187.066 98.3337 187.107 98.2332 187.384 98.2734C187.934 98.3529 187.11 98.3325 186.886 98.3457C186.085 98.3934 185.847 98.3548 184.712 98.368C184.303 98.3727 183.819 98.4215 183.63 98.4242C183.51 98.4258 182.383 98.256 182.349 98.5218C181.911 98.4961 181.223 98.3209 180.772 98.3289C180.366 98.3362 180.495 98.4303 180.457 98.4339C180.399 98.4396 179.909 98.4322 179.743 98.4455C179.549 98.4612 179.646 98.4971 179.338 98.5117C178.57 98.5481 178.59 98.4521 178.511 98.4458C177.596 98.3737 177.997 98.5103 177.794 98.5212C177.605 98.5313 174.954 98.4787 174.397 98.5133C174.624 98.494 174.851 98.4748 175.078 98.4556C174.671 98.3957 174.241 98.4934 174.233 98.386C174.151 98.5594 173.312 98.4435 173.06 98.448C172.961 98.4498 172.969 98.4793 172.845 98.4806C172.359 98.4858 171.265 98.4623 171.002 98.4773C169.863 98.5417 172.774 98.649 173.004 98.6555C172.545 98.6536 169.949 98.6924 171.142 98.7757C171.327 98.7886 171.654 98.711 171.757 98.708C172.458 98.688 171.907 98.7575 171.962 98.7641C172.055 98.7748 172.517 98.7076 172.639 98.7156C172.679 98.7182 172.418 98.7811 173.086 98.7824C172.757 98.8435 170.878 98.7938 170.632 98.8081C170.544 98.8132 171.094 98.9436 169.486 98.8169C169.505 98.829 169.523 98.8411 169.542 98.8533C168.646 98.8582 167.751 98.8632 166.855 98.8682C166.953 98.8403 167.455 98.7843 166.822 98.7962C166.458 98.8031 166.727 98.8652 166.694 98.867C166.367 98.8841 160.576 98.8634 159.454 98.8703C159.072 98.8726 158.008 98.9225 157.927 98.9234C157.442 98.9284 155.724 98.8959 155.381 98.903C155.167 98.9075 155.371 98.9595 155.179 98.957C155.002 98.9547 155.186 98.9045 155.133 98.9024C154.696 98.8842 151.375 98.95 150.586 98.9027C151.068 98.9169 153.473 98.8166 153.425 98.7812C153.414 98.7764 152.83 98.7382 152.709 98.7568C152.51 98.7134 151.826 98.8457 151.454 98.8197C151.412 98.8167 151.578 98.7425 150.914 98.729C150.685 98.7244 150.086 98.7823 149.483 98.7174C148.61 98.7486 144.022 98.6523 143.707 98.7321C143.698 98.7363 144.344 98.7638 143.908 98.7965C143.327 98.84 143.848 98.6935 143.172 98.6808C143.07 98.6789 141.188 98.6937 141.127 98.7028C140.557 98.785 142.201 98.8184 142.178 98.8279C142.121 98.852 140.755 98.8666 140.699 98.8609C140.646 98.855 141.76 98.746 140.421 98.7873C140.575 98.8004 140.728 98.8134 140.882 98.8264C140.252 98.8518 140.192 98.7764 140.039 98.7718C139.565 98.7572 139.052 98.8717 138.292 98.7303C138.091 98.6927 138.425 98.651 138.4 98.6454C138.158 98.5949 137.85 98.73 137.488 98.6292C137.46 98.6217 138.305 98.5613 136.829 98.5612C136.93 98.5709 137.032 98.5805 137.133 98.5902C136.925 98.6118 135.431 98.6246 135.229 98.6195C134.642 98.6046 135.154 98.5352 134.564 98.5435C134.943 98.6386 133.147 98.651 133.25 98.5691C133 98.6719 131.475 98.5926 130.758 98.5902C130.305 98.5887 129.382 98.6336 129.239 98.6283C129.064 98.6219 129.117 98.5518 128.801 98.5362C128.711 98.5317 127.769 98.5831 126.943 98.5105C126.783 98.4965 126.447 98.3776 126.744 98.3479C127.254 98.297 128.217 98.3928 128.205 98.3225C128.191 98.2473 126.893 98.2921 126.543 98.2822C124.931 98.2369 125.862 98.1569 125.82 98.1327C125.713 98.0739 124.832 98.0757 124.795 98.0704C124.642 98.047 125.267 98.0004 125.276 97.9645C125.288 97.9178 124.438 97.8335 124.631 97.8178C124.908 97.7954 125.688 97.8657 125.738 97.8623C126.382 97.817 125.499 97.709 125.256 97.656C125.182 97.6397 125.476 97.6129 125.415 97.6081C124.481 97.5355 125.218 97.7598 124.597 97.7448C124.043 97.7315 124.756 97.6605 124.734 97.6566C124.707 97.6523 124.044 97.6484 123.941 97.6233C123.89 97.6108 125.612 97.4728 125.54 97.4109C124.99 97.4246 124.441 97.4382 123.891 97.4518C123.848 97.3712 124.639 97.4305 124.72 97.4222C124.885 97.4055 124.426 97.3647 124.446 97.3392C124.456 97.323 124.995 97.2651 124.508 97.2413C124.341 97.233 123.99 97.2896 123.381 97.2318C125.501 97.158 124.032 97.1127 123.969 97.0841C123.908 97.0555 124.92 96.9883 123.692 97.0002C123.639 96.8432 123.718 96.9505 124.067 96.9229C124.495 96.889 123.507 96.8373 125.069 96.8766C124.981 96.8031 123.725 96.8083 123.658 96.8024C123.601 96.7971 123.88 96.7609 123.78 96.7487C122.603 96.6067 123.412 96.6715 123.071 96.5808C123.04 96.5727 121.927 96.5391 122.775 96.5259C124.318 96.5019 124.963 96.606 125.223 96.3834C124.081 96.2866 122.698 96.4304 122.35 96.4328C121.819 96.4363 122.37 96.3909 122.304 96.3782C122.281 96.3741 121.824 96.3778 121.817 96.3742C121.491 96.2044 123.855 96.3714 124.6 96.3419C124.4 96.3164 124.201 96.291 124.001 96.2656C124.272 96.2646 124.543 96.2635 124.813 96.2625C123.524 96.2114 124.768 96.2432 125.089 96.1056C125.161 96.0748 124.314 96.1277 125.281 96.0419C124.568 96.022 124.795 95.9939 124.15 96.0327C124.167 95.9776 125.619 95.9154 126.191 95.8871C124.168 95.8252 125.322 96.0274 123.573 95.9204C123.248 95.9886 124.083 95.9754 124.015 95.9866C123.771 96.0271 123.198 95.9628 122.507 96.1047C122.395 96.128 122.871 96.1998 122.166 96.1963C122.089 96.1958 121.64 96.1345 121.646 96.1301C121.705 96.0821 122.15 96.1 122.168 96.08C122.185 96.061 121.69 96.0725 121.688 96.0672C121.673 96.0071 122.101 96.0442 122.039 96.0254C121.905 95.9844 120.122 95.855 122.448 95.8929C120.516 95.9609 122.201 95.9593 122.953 95.9332C123.145 95.9267 123.194 95.8908 123.467 95.8783C123.819 95.8621 124.231 95.8794 124.413 95.8728C124.608 95.8655 123.496 95.7806 125.105 95.806C124.286 95.7215 122.84 95.8115 122.036 95.7522C120.414 95.6324 123.167 95.6067 123.454 95.5951C123.531 95.5919 123.274 95.5434 123.325 95.5404C123.409 95.5359 124.971 95.5583 125.125 95.5182C125.279 95.4781 124.553 95.52 124.505 95.4782C124.472 95.45 126.357 95.4001 125.337 95.3808C124.633 95.3676 123.337 95.4808 123.118 95.3592C124.153 95.3491 125.187 95.339 126.222 95.3289C125.655 95.2827 125.089 95.2364 124.523 95.1901C125.684 95.1754 126.688 95.2277 127.791 95.1614C125.141 95.0131 128.651 95.043 128.689 95.025C128.702 95.0142 127.659 94.8938 127.492 94.8718C128.416 94.8255 131.224 94.8028 129.581 94.6542C129.879 94.6877 130.601 94.6049 130.592 94.5986C130.5 94.533 128.925 94.5755 129.182 94.5162C129.48 94.4474 129.897 94.5408 130.355 94.5333C132.705 94.4944 132.06 94.1516 134.417 94.2059C134.37 94.1937 134.323 94.1814 134.276 94.1692C136.837 94.1887 139.399 94.2081 141.96 94.2275C142.962 94.1228 145.629 94.0591 146.939 94.0707C147.203 94.0729 148.498 94.1279 148.596 94.1375C148.777 94.156 147.782 94.163 148.231 94.1976C148.326 94.2047 150.519 94.2278 150.362 94.1692C150.116 94.1624 149.348 94.1919 149.222 94.1781C148.338 94.0796 155.097 94.1583 155.432 94.1186C155.282 94.0996 155.132 94.0805 154.983 94.0615C155.409 94.0709 155.836 94.0802 156.262 94.0896ZM136.663 98.794C136.407 98.8528 135.765 98.8087 135.386 98.8252C134.863 98.8483 133.972 99.0746 134.356 98.8478C135.125 98.8299 135.894 98.8119 136.663 98.794ZM147.904 98.8816C147.388 98.8501 147.788 98.7234 148.211 98.776C148.258 98.782 148.602 98.9241 147.904 98.8816ZM142.497 98.8215C142.519 98.8198 142.964 98.8232 142.98 98.8252C143.38 98.876 142.036 98.8656 142.497 98.8215ZM168.616 98.7565C168.048 98.762 168.46 98.8771 168.813 98.8298C168.835 98.8267 168.654 98.7562 168.616 98.7565ZM168.212 98.7535C167.771 98.6503 166.882 98.8593 167.589 98.8383C167.657 98.8362 168.233 98.7585 168.212 98.7535ZM146.065 98.8313C146.124 98.7917 146.656 98.8108 146.883 98.8203C146.876 98.8564 146.288 98.8269 146.065 98.8313ZM159.554 98.8203C159.577 98.7892 157.728 98.7909 157.602 98.8319C157.893 98.8145 159.533 98.8482 159.554 98.8203ZM164.296 98.7766C164.249 98.7713 163.611 98.7794 163.629 98.8069C163.941 98.8428 164.507 98.801 164.296 98.7766ZM173.722 98.7785C173.756 98.7716 173.278 98.5971 174.411 98.7119C174.578 98.7288 173.983 98.7744 174.043 98.7806C174.166 98.7928 174.264 98.7985 174.343 98.7995C173.815 98.814 173.267 98.8208 173.214 98.8102C172.964 98.7602 173.706 98.7814 173.722 98.7785ZM178.67 98.6485C178.779 98.62 179.473 98.6352 179.631 98.6469C179.658 98.6491 179.54 98.724 179.853 98.7184C180.104 98.7137 179.729 98.6371 180.218 98.6494C180.712 98.6617 180.052 98.7163 180.095 98.7202C180.153 98.7253 180.918 98.6909 180.894 98.7354C180.876 98.7685 180.057 98.7461 179.854 98.7531C179.595 98.7622 179.91 98.8171 179.476 98.8053C179.204 98.798 179.355 98.7013 179.297 98.6964C179.249 98.6924 178.297 98.7481 178.671 98.6488C178.671 98.6487 178.67 98.6486 178.67 98.6485ZM174.486 98.7953C174.446 98.7985 174.399 98.8003 174.343 98.7995C174.391 98.7982 174.439 98.7967 174.486 98.7953ZM138.153 98.7516C138.421 98.7814 137.625 98.8197 137.324 98.7806C137.319 98.7491 138.11 98.747 138.153 98.7516ZM174.975 98.7165C175.76 98.7407 175.183 98.7741 174.486 98.7953C174.707 98.7771 174.712 98.7084 174.975 98.7165ZM152.709 98.7568C152.742 98.764 152.763 98.7753 152.766 98.7937C152.679 98.7735 152.671 98.7627 152.709 98.7568ZM154.539 98.7898C155.166 98.7335 153.892 98.7358 153.9 98.776C153.904 98.7912 154.514 98.792 154.539 98.7898ZM169.345 98.762C169.288 98.7565 170.179 98.5866 168.885 98.7141C169.576 98.7341 168.847 98.7526 168.858 98.7675C168.886 98.8103 170.046 98.7692 170.303 98.7876C170.504 98.7111 169.535 98.7801 169.347 98.762C169.346 98.762 169.346 98.762 169.345 98.762ZM187.588 98.6897C187.431 98.7345 186.932 98.7201 186.595 98.7174C186.753 98.6726 187.251 98.687 187.588 98.6897ZM275.652 98.6961C273.346 98.7375 273.047 98.5549 275.157 98.6271C275.198 98.6286 275.792 98.6776 275.652 98.6961ZM255.861 98.6488C255.644 98.5692 256.363 98.5564 256.835 98.5893C256.942 98.5967 257.338 98.6773 256.886 98.693C256.901 98.5966 256.203 98.5597 255.861 98.6488ZM175.419 98.6656C175.647 98.6125 176.35 98.6503 176.72 98.6582C176.494 98.7019 175.746 98.6822 175.419 98.6656ZM268.074 98.6009C267.831 98.5948 267.667 98.6641 267.709 98.6698C267.897 98.6963 268.351 98.6403 268.074 98.6009ZM173.149 98.6573C173.117 98.6256 174.048 98.5951 174.113 98.6735C173.914 98.6678 173.173 98.6772 173.149 98.6573ZM186.953 98.6659C186.809 98.6497 187.557 98.6209 187.784 98.6369C187.765 98.6706 187.048 98.6763 186.953 98.6659ZM264.161 98.6244C263.943 98.6183 263.4 98.6165 263.339 98.6445C263.265 98.6795 264.062 98.6676 264.161 98.6244ZM304.659 98.5639C304.686 98.5765 303.844 98.6671 303.47 98.6442C302.759 98.6003 304.629 98.5551 304.659 98.5639ZM270.375 98.5652C271.061 98.631 270.299 98.5672 270.329 98.6366C270.791 98.6391 271.94 98.6425 271.15 98.5743C270.996 98.5611 270.59 98.5696 270.375 98.5652ZM269.742 98.542C269.668 98.5644 269.173 98.6352 269.601 98.6302C269.799 98.6277 270.118 98.549 269.742 98.542ZM299.441 98.5948C298.826 98.5334 301.646 98.5663 301.727 98.5771C301.77 98.5827 301.798 98.5881 301.814 98.5926C301.917 98.5732 302.45 98.5697 302.512 98.6189C302.352 98.6148 301.916 98.6191 301.865 98.6137C301.843 98.6114 301.827 98.6092 301.816 98.607C301.628 98.6497 299.559 98.6064 299.441 98.5948ZM294.768 98.5316C295.472 98.441 295.597 98.595 295.536 98.5999C294.77 98.663 295.269 98.5494 295.246 98.5441C295.192 98.5352 294.648 98.5879 294.77 98.5316C294.769 98.5316 294.769 98.5316 294.768 98.5316ZM298.483 98.5694C298.512 98.5674 299.103 98.5722 299.127 98.5746C299.612 98.6264 297.939 98.6131 298.483 98.5694ZM182.4 98.5407C182.823 98.556 182.408 98.6127 182.126 98.5923C182.103 98.5903 182.026 98.5272 182.4 98.5407ZM269.404 98.5572C269.306 98.5465 266.796 98.5062 266.947 98.5917C267.16 98.5816 270.013 98.6256 269.404 98.5572ZM250.65 98.5365C251.092 98.5371 250.61 98.6178 250.374 98.5877C250.286 98.5766 250.538 98.5364 250.65 98.5365ZM171.894 98.5841C171.435 98.6284 171.53 98.4797 171.928 98.5307C171.944 98.5327 171.912 98.5823 171.894 98.5841ZM254.185 98.5829C252.659 98.6318 253.02 98.376 255.004 98.4623C254.942 98.4737 254.88 98.4851 254.818 98.4965C257.108 98.5349 254.975 98.5145 254.414 98.5288C254.201 98.5343 254.38 98.577 254.186 98.5832C254.186 98.5831 254.186 98.583 254.185 98.5829ZM248.322 98.5316C246.853 98.35 249.658 98.4683 250.463 98.4446C249.683 98.5196 248.667 98.5082 250.049 98.585C248.029 98.5998 248.87 98.5275 248.789 98.5215C248.694 98.5148 248.385 98.5394 248.322 98.5316ZM252.199 98.5304C252.284 98.5251 252.924 98.562 253.155 98.556C252.833 98.618 251.635 98.5664 252.199 98.5304ZM289.869 98.5737C289.922 98.5251 290.054 98.4893 290.559 98.5075C290.403 98.5319 290.08 98.5529 289.869 98.5737ZM136.177 98.5383C135.829 98.5348 135.136 98.5165 135.349 98.5676C135.372 98.572 136.176 98.567 136.177 98.5383ZM262.115 98.5179C262.041 98.5119 260.127 98.5079 260.788 98.5615C260.988 98.5777 262.729 98.5708 262.115 98.5179ZM272.025 98.524C271.865 98.5234 271.214 98.5326 271.2 98.5441C271.156 98.5838 271.955 98.562 272.025 98.524ZM134.422 98.4886C134.376 98.4835 133.313 98.4924 133.43 98.516C133.652 98.5606 134.579 98.5059 134.422 98.4886ZM183.939 98.4269C184.028 98.4251 184.145 98.4779 184.176 98.4785C184.248 98.4792 185.875 98.4589 185.253 98.5267C185.15 98.5381 182.81 98.512 182.506 98.5053C182.388 98.4329 183.387 98.5018 183.631 98.4944C183.673 98.4929 183.701 98.4323 183.938 98.4272C183.939 98.4271 183.939 98.427 183.939 98.4269ZM292.501 98.5224C292.573 98.4764 294.485 98.4459 294.462 98.5017C293.809 98.5086 293.155 98.5155 292.501 98.5224ZM291.53 98.5148C291.122 98.4822 292.077 98.4714 292.359 98.4858C292.362 98.5168 291.589 98.5196 291.53 98.5148ZM268.399 98.3518C268.207 98.3631 268.797 98.4303 268.665 98.4434C268.581 98.4515 268.151 98.4263 268.015 98.4474C267.976 98.454 268.414 98.5172 268.54 98.5145C268.72 98.5108 268.546 98.4611 268.742 98.4608C269.394 98.4597 269.972 98.4952 270.583 98.4944C270.638 98.4942 270.21 98.4591 270.68 98.4596C270.753 98.4596 271.19 98.5119 271.753 98.5041C272.997 98.3421 273.909 98.5012 275.487 98.4428C275.428 98.4275 274.248 98.3866 274.178 98.3851C272.859 98.3585 270.497 98.3555 269.115 98.3552C268.761 98.355 268.933 98.3893 268.78 98.3906C268.66 98.3915 268.803 98.328 268.399 98.3518ZM136.362 98.5032C136.196 98.4398 135.614 98.4799 135.243 98.4766C135.374 98.5338 135.999 98.4892 136.362 98.5032ZM282.947 98.4657C282.761 98.4681 282.183 98.449 282.136 98.4681C282.074 98.493 282.907 98.5088 282.947 98.4657ZM193.108 98.4449C193.126 98.4432 193.574 98.4466 193.591 98.4486C193.991 98.4995 192.648 98.489 193.108 98.4449ZM203.826 98.4571C204.165 98.4493 204.508 98.4295 204.622 98.4809C204.406 98.473 203.786 98.493 203.826 98.4571ZM218.611 98.4556C218.541 98.3882 219.564 98.4318 219.757 98.4379C219.686 98.4678 218.663 98.5041 218.611 98.4556ZM289.795 98.3622C290.421 98.3662 290.289 98.2641 290.686 98.3103C290.75 98.3181 290.96 98.5306 290.272 98.451C290.149 98.4367 290.633 98.3862 289.795 98.3622ZM255.328 98.4644C255.487 98.4199 255.984 98.4331 256.319 98.4367C256.244 98.4698 255.567 98.4613 255.328 98.4644ZM132.502 98.4376C132.209 98.3747 130.855 98.4213 131.19 98.4629C131.237 98.4683 132.312 98.4352 132.502 98.4376ZM177.008 98.4623C177.565 98.4128 176.411 98.3974 176.047 98.4458C176.212 98.4427 176.971 98.4656 177.008 98.4623ZM215.06 98.419C215.087 98.4169 215.678 98.4217 215.704 98.4242C216.188 98.4759 214.516 98.4626 215.06 98.419ZM200.301 98.3753C200.514 98.3346 201.914 98.3675 202.228 98.4083C201.926 98.4679 200.037 98.4263 200.301 98.3753ZM287.223 98.3912C287.669 98.3891 288.092 98.4016 288.502 98.4193C288.416 98.4536 287.27 98.4168 287.223 98.3912ZM217.23 98.4147C217.261 98.415 217.292 98.4189 217.322 98.4193C217.291 98.4178 217.26 98.4162 217.23 98.4147ZM277.24 98.3671C276.867 98.3535 276.944 98.4164 276.967 98.4184C277.248 98.4387 277.663 98.3824 277.24 98.3671ZM135.935 98.4098C135.805 98.353 135.177 98.3971 134.815 98.3836C134.92 98.4284 135.644 98.4158 135.935 98.4098ZM246.748 98.4153C246.279 98.3538 248.189 98.2823 248.592 98.3219C248.622 98.3599 246.817 98.4237 246.748 98.4153ZM175.277 98.3772C175.24 98.3327 174.438 98.3864 174.608 98.4074C174.716 98.4207 175.3 98.4048 175.277 98.3772ZM249.553 98.3479C249.732 98.3343 250.15 98.3782 250.003 98.4049C249.814 98.4392 249.506 98.3517 249.553 98.3479ZM265.658 98.3122C265.579 98.3054 264.524 98.351 264.96 98.3964C265.262 98.4279 265.311 98.3636 265.382 98.3634C265.461 98.3636 267.156 98.4423 265.658 98.3122ZM236.048 98.3765C236.446 98.3594 236.928 98.3793 237.344 98.3781C237.175 98.4056 236.217 98.4131 236.048 98.3765ZM178.371 98.3653C178.274 98.3473 175.64 98.3364 177.136 98.3918C177.223 98.3949 178.665 98.4197 178.371 98.3653ZM289.795 98.3622C289.717 98.3617 289.626 98.3596 289.52 98.3552C289.625 98.3569 289.716 98.3599 289.795 98.3622ZM282.695 98.3555C282.839 98.3231 282.114 98.3145 281.9 98.3317C281.834 98.3712 282.675 98.36 282.695 98.3555ZM237.376 98.3329C237.616 98.3144 238.052 98.3342 238.349 98.332C238.299 98.3621 237.48 98.3635 237.376 98.3329ZM220.512 98.299C220.989 98.3169 221.576 98.3087 221.585 98.2719C221.595 98.2776 221.618 98.2837 221.657 98.2899C221.695 98.296 222.206 98.2788 222.428 98.2914C223.757 98.3661 217.297 98.3353 221.041 98.2313C220.865 98.2539 220.689 98.2764 220.512 98.299ZM198.407 98.2887C198.136 98.2438 197.378 98.3 197.575 98.3176C197.712 98.3297 198.678 98.3338 198.407 98.2887ZM208.822 98.2621C208.741 98.2541 208.001 98.2855 207.982 98.3091C208.407 98.334 209.19 98.2993 208.822 98.2621ZM196.326 98.2362C196.156 98.2294 195.94 98.3017 195.96 98.3048C196.132 98.3312 196.612 98.2764 196.326 98.2362ZM288.5 98.1675C288.248 98.1468 287.442 98.1991 287.266 98.2468C287.234 98.2376 287.146 98.2256 286.984 98.2111C286.985 98.2111 286.985 98.2111 286.986 98.2111C286.768 98.1919 280.256 98.1708 284.624 98.2627C284.761 98.2657 284.574 98.2228 285.131 98.2304C285.167 98.2309 285.186 98.2659 285.299 98.2676C285.561 98.2713 286.953 98.2933 287.233 98.2652C287.235 98.2716 287.253 98.2778 287.291 98.2835C287.635 98.3339 288.696 98.1835 288.5 98.1675ZM210.289 98.2557C210.14 98.2427 209.669 98.255 209.62 98.2859C209.854 98.301 210.635 98.2859 210.289 98.2557ZM178.289 98.2386C177.986 98.2132 177.217 98.2607 177.449 98.2859C177.592 98.3014 178.639 98.2678 178.289 98.2386ZM205.567 98.2722C207.307 98.3087 205.982 98.2692 206.249 98.224C206.021 98.24 205.794 98.2561 205.567 98.2722ZM296.553 98.2844C296.276 98.274 296.602 98.1846 296.907 98.2331C297.003 98.2485 296.709 98.29 296.553 98.2844ZM309.082 98.2566C308.845 98.1774 310.002 98.2239 309.551 98.2783C309.53 98.2801 309.099 98.2596 309.082 98.2566ZM300.327 98.2243C300.139 98.2782 300.016 98.2846 299.486 98.2713C300.271 98.2561 299.543 98.2084 300.327 98.2243ZM221.58 98.2661C221.583 98.2682 221.586 98.2699 221.585 98.2719C221.582 98.2699 221.58 98.268 221.58 98.2661ZM194.69 98.2502C194.473 98.2045 193.862 98.2079 194.044 98.2539C194.061 98.2581 194.601 98.284 194.69 98.2502ZM287.266 98.2468C287.295 98.255 287.281 98.2603 287.233 98.2652C287.23 98.2591 287.243 98.2533 287.266 98.2468ZM197.968 98.213C197.946 98.2471 198.875 98.2603 198.913 98.2563C199.446 98.1972 198.352 98.2109 197.968 98.213ZM172.146 98.1907C172.098 98.1942 172.407 98.2822 172.597 98.2478C172.743 98.221 172.325 98.1772 172.146 98.1907ZM302.129 98.2023C302.423 98.2023 302.837 98.2023 302.914 98.2441C302.717 98.2377 302.123 98.233 302.129 98.2023ZM308.629 98.1992C308.281 98.2484 307.487 98.2482 306.98 98.2401C306.971 98.1755 308.303 98.2144 308.629 98.1992ZM289.298 98.1916C289.274 98.189 288.537 98.1697 288.637 98.213C288.784 98.2764 289.507 98.2151 289.298 98.1916ZM173.579 98.2374C173.909 98.2076 173.149 98.1159 172.801 98.1867C172.622 98.223 173.523 98.2424 173.579 98.2374ZM192.784 98.1904C192.349 98.2154 193.428 98.2601 193.579 98.2148C193.378 98.2112 192.939 98.1815 192.784 98.1904ZM207.598 98.1446C206.226 98.0141 206.973 98.2522 207.217 98.2313C207.251 98.2283 207.632 98.1477 207.598 98.1446ZM129.098 98.1767C128.904 98.1948 129.628 98.2605 129.722 98.2172C129.78 98.1902 129.222 98.1651 129.098 98.1767ZM228.258 98.2294C228.2 98.2299 228.142 98.2303 228.085 98.2307C228.128 98.2285 228.184 98.2278 228.258 98.2294ZM188.832 98.0155C189.798 98.1998 189.696 98.0578 189.78 98.0585C189.962 98.0605 190.383 98.1104 190.725 98.1022C190.334 98.1229 189.942 98.1437 189.551 98.1644C189.86 98.1778 192.546 98.2456 192.602 98.2157C192.683 98.1732 191.838 98.1865 191.813 98.1828C191.778 98.1774 191.646 98.0591 191.567 98.0546C191.438 98.0474 189.192 98.0449 188.832 98.0155ZM204.729 98.1651C204.95 98.1791 205.012 98.226 205.115 98.2148C205.15 98.211 205.155 98.1662 205.274 98.1547C205.093 98.1581 204.911 98.1616 204.729 98.1651ZM187.103 98.1812C186.829 98.1266 188.055 98.1473 188.094 98.1535C188.304 98.1905 187.326 98.2259 187.103 98.1812ZM197.504 98.1733C197.459 98.1701 196.518 98.153 196.526 98.1834C196.775 98.2065 198.033 98.2132 197.504 98.1733ZM205.422 98.1516C205.752 98.1568 206.378 98.2019 206.306 98.1345C206.305 98.1345 206.305 98.1345 206.304 98.1345C206.01 98.1402 205.716 98.1459 205.422 98.1516ZM174.708 98.0952C174.095 97.9879 174.386 98.1234 174.928 98.158C175.093 98.1099 174.809 98.1126 174.708 98.0952ZM172.747 98.0152C172.576 97.9959 170.819 98.0171 171.087 98.0738C171.183 98.094 172.193 98.043 172.239 98.0469C172.31 98.0528 171.988 98.1155 172.527 98.1031C172.495 98.0818 172.805 98.0217 172.747 98.0152ZM174.201 98.0265C173.592 97.9449 173.455 98.0954 173.913 98.0958C174.092 98.096 174.288 98.0383 174.201 98.0265ZM176.689 98.0393C176.469 98.025 175.886 98.0042 175.483 98.0543C176.022 98.0585 176.56 98.0628 177.099 98.0671C177.161 98.0387 176.88 98.0519 176.687 98.0393C176.688 98.0393 176.688 98.0393 176.689 98.0393ZM312.289 97.8138C311.805 97.7711 312.92 97.7548 312.967 97.7653C313.107 97.8001 312.505 97.8328 312.289 97.8138ZM125.318 96.81C125.184 96.793 125.096 96.7371 124.8 96.7664C125.098 96.8077 125.395 96.849 125.693 96.8903C125.924 96.7956 125.465 96.8288 125.318 96.81ZM124.182 96.4642C124.224 96.462 123.994 96.3164 124.537 96.4136C124.904 96.4792 122.908 96.5431 122.548 96.4786C122.946 96.4486 123.82 96.4829 124.182 96.4642ZM120.685 95.8343C120.662 95.8227 121.42 95.8057 121.508 95.8139C121.969 95.857 120.81 95.8965 120.685 95.8343ZM123.104 95.8621C122.749 95.8338 123.537 95.8156 123.771 95.8319C123.794 95.859 123.159 95.8662 123.104 95.8621ZM307.389 95.7062C307.004 95.6073 306.659 95.8202 307.252 95.7773C307.28 95.7752 307.405 95.711 307.389 95.7062ZM121.427 95.6875C121.782 95.7158 120.994 95.734 120.759 95.7178C120.738 95.6907 121.372 95.6834 121.427 95.6875ZM307.118 95.4706C306.607 95.3994 306.786 95.6382 306.85 95.6479C307.113 95.6859 308.016 95.5921 308.2 95.5688C306.85 95.6047 307.358 95.5041 307.118 95.4706ZM304.76 95.614C304.286 95.6395 305.498 95.6882 305.729 95.6216C305.493 95.6248 304.895 95.6066 304.76 95.614ZM301.882 95.5374C301.627 95.5288 300.869 95.5084 300.742 95.5459C301.02 95.5391 301.775 95.5761 301.882 95.5374ZM301.305 95.4248C300.906 95.3737 300.811 95.5225 301.27 95.4782C301.288 95.4765 301.32 95.4276 301.305 95.4248ZM299.065 95.3711C298.803 95.3119 298.505 95.456 298.928 95.4599C299.054 95.4608 299.092 95.3778 299.065 95.3711ZM306.478 95.2136C306.103 95.1882 305.621 95.2914 306.42 95.3027C306.14 95.3185 305.859 95.3342 305.578 95.35C306.625 95.4078 306.548 95.2647 306.849 95.2707C307.269 95.2791 307.236 95.3972 307.151 95.4342C307.496 95.3619 308.959 95.3607 309.805 95.347C309.062 95.3166 307.855 95.264 307.122 95.2447C306.913 95.2391 306.709 95.2715 306.531 95.2679C306.245 95.2619 306.499 95.2153 306.479 95.2136C306.479 95.2136 306.478 95.2136 306.478 95.2136ZM296.12 95.3689C295.351 95.3019 295.837 95.4466 296.271 95.4208C296.29 95.4188 296.139 95.3706 296.12 95.3689ZM120.408 95.2478C121.434 95.3083 120.688 95.3884 122.836 95.2667C121.933 95.3529 122.786 95.3287 122.61 95.3634C122.468 95.3909 121.939 95.3682 122.247 95.4236C121.842 95.3633 120.086 95.3799 120.008 95.3701C120.009 95.3701 120.009 95.3701 120.01 95.3701C119.963 95.3643 120.08 95.2285 120.408 95.2478ZM301.879 95.159C301.622 94.9834 301.522 95.2621 301.018 95.1165C300.347 95.3279 302.871 95.1166 303.177 95.2951C300.436 95.2743 304.987 95.4719 303.074 95.2047C304.65 95.3017 303.591 95.1716 303.834 95.1376C304.094 95.1013 304.986 95.1407 304.941 95.0753C304.94 95.0753 304.94 95.0753 304.939 95.0753C304.394 95.0799 303.848 95.0845 303.303 95.0891C303.837 95.2302 302.723 95.1879 302.345 95.0729C302.189 95.1016 302.034 95.1303 301.879 95.159ZM304.965 95.2914C304.911 95.2882 303.725 95.308 303.802 95.3363C303.96 95.3543 305.643 95.3327 304.965 95.2914ZM310.185 95.2606C309.759 95.2602 309.1 95.2327 308.868 95.2859C309.294 95.2863 309.953 95.3138 310.185 95.2606ZM288.256 95.2505C287.713 95.2942 289.384 95.3071 288.901 95.2554C288.877 95.253 288.283 95.2485 288.256 95.2505ZM300.644 95.1855C300.092 95.1318 300.353 95.3027 300.762 95.2581C300.785 95.2555 300.669 95.188 300.644 95.1855ZM121.239 95.227C121.276 95.1852 122.766 95.2146 123.03 95.2142C122.88 95.2531 121.197 95.275 121.239 95.227ZM310.934 95.104C310.087 94.9535 308.937 95.1274 308.811 95.1236C308.686 95.1197 308.882 95.0539 308.854 95.0521C308.788 95.0485 307.453 95.054 307.389 95.0586C307.342 95.0621 307.584 95.1546 307.308 95.1837C307.846 95.1312 310.287 95.164 310.414 95.1538C310.512 95.1456 309.772 95.0485 310.933 95.104C310.933 95.104 310.934 95.104 310.934 95.104ZM308.496 95.1034C308.829 95.1422 307.894 95.147 307.668 95.1327C307.165 95.1007 308.453 95.0988 308.496 95.1034ZM306.246 95.0677C306.139 95.059 305.175 95.0511 305.093 95.0943C305.549 95.1502 306.488 95.088 306.246 95.0677ZM295.517 95.0735C295.267 95.079 294.578 95.0459 294.539 95.0836C294.79 95.0781 295.478 95.1112 295.517 95.0735ZM126.322 94.898C125.906 94.8665 126.87 94.8536 127.151 94.8687C127.166 94.8939 126.357 94.9007 126.322 94.898ZM300.55 94.8251C300.402 94.8136 297.377 94.8422 296.953 94.8599C297.368 94.8884 300.366 94.8906 300.502 94.8767C300.542 94.8725 300.569 94.8269 300.55 94.8251ZM307.092 94.8077C307.369 94.7522 307.55 94.8188 307.585 94.8196C307.928 94.8281 308.639 94.8156 308.483 94.869C307.878 94.8475 306.54 94.9179 307.092 94.8077ZM295.302 94.8223C294.275 94.8429 296.248 94.9014 295.989 94.8434C295.973 94.8399 295.409 94.8202 295.302 94.8223ZM300.888 94.8089C301.115 94.7641 304.14 94.8027 304.626 94.8028C304.191 94.8855 303.84 94.8227 303.256 94.8269C303.098 94.8282 303.14 94.8626 303.124 94.8626C302.85 94.8642 303.055 94.8245 302.886 94.8239C302.78 94.8236 300.57 94.8721 300.888 94.8089ZM307.25 94.7692C307.419 94.7374 309.308 94.7239 309.385 94.7323C309.953 94.7952 307.397 94.7803 307.25 94.7692ZM300.611 94.7354C300.936 94.6392 302.439 94.7036 301.41 94.7515C301.312 94.7559 300.896 94.7142 300.611 94.7354ZM295.412 94.7308C295.362 94.728 294.291 94.7087 294.272 94.7393C294.426 94.7512 295.987 94.7619 295.412 94.7308ZM295.967 94.6273C295.941 94.6281 296.193 94.687 295.69 94.6795C295.649 94.6788 295.571 94.6125 294.939 94.6368C294.811 94.6418 294.613 94.6856 294.627 94.6884C295.285 94.7924 297.264 94.5931 295.967 94.6273ZM307.285 94.7155C307.183 94.6875 307.428 94.6045 307.65 94.6465C307.745 94.6647 307.568 94.7145 307.285 94.7155ZM292.017 94.7039C292.639 94.6536 290.685 94.644 290.585 94.6569C290.648 94.6883 291.954 94.7088 292.017 94.7039ZM127.296 94.5092C127.295 94.5092 127.295 94.5092 127.294 94.5092C127.818 94.5206 127.494 94.5625 127.518 94.5638C128.633 94.6254 128.338 94.5305 128.512 94.5193C128.886 94.4951 128.826 94.6105 129.457 94.5626C128.414 94.6333 129.363 94.6037 129.393 94.6447C129.509 94.8123 128.004 94.5663 127.484 94.6014C127.412 94.6062 127.947 94.6597 127.761 94.6749C127.158 94.7242 125.287 94.4656 127.296 94.5092ZM307.821 94.6392C308.064 94.59 309.906 94.6377 309.418 94.6783C309.339 94.6848 307.464 94.711 307.821 94.6392ZM221.747 94.5666C222.19 94.524 221.164 94.4739 220.973 94.5071C220.879 94.5236 221.553 94.5853 221.747 94.5666ZM214.551 94.3844C214.025 94.393 213.47 94.5707 214.125 94.5431C214.194 94.5401 214.611 94.409 214.551 94.3844ZM249.104 94.4756C248.555 94.4122 248.587 94.5301 248.991 94.5284C249.133 94.5279 249.122 94.4777 249.104 94.4756ZM228.133 94.4909C228.078 94.4868 227.443 94.4943 227.466 94.5214C227.701 94.5377 228.489 94.5192 228.133 94.4909ZM249.279 94.4589C248.953 94.4801 249.514 94.5654 249.912 94.4821C249.71 94.4889 249.312 94.4567 249.279 94.4589ZM299.475 94.4747C299.203 94.5232 298.431 94.5085 297.988 94.5168C297.94 94.4541 299.159 94.4861 299.475 94.4747ZM216.785 94.4558C216.287 94.5 217.354 94.5362 217.256 94.4778C217.242 94.4746 216.804 94.4539 216.785 94.4558ZM266.831 94.4524C266.469 94.4899 267.619 94.5402 267.303 94.4744C267.287 94.4717 266.851 94.4504 266.831 94.4524ZM271.852 94.4741C271.577 94.4615 270.406 94.4654 270.862 94.5019C270.932 94.5075 271.831 94.5084 271.852 94.4741ZM128.543 94.4741C128.395 94.4097 129.254 94.425 129.377 94.4363C129.425 94.441 128.736 94.558 128.543 94.4741ZM245.536 94.4656C245.251 94.4736 244.514 94.4583 244.384 94.4921C244.732 94.4851 245.629 94.5329 245.536 94.4656ZM219.056 94.4555C218.622 94.3855 217.881 94.3924 218.064 94.4839C218.883 94.4778 217.963 94.4016 219.056 94.4555ZM251.11 94.3835C250.882 94.3781 250.707 94.466 250.733 94.4702C250.98 94.5095 251.336 94.4177 251.11 94.3835ZM234.002 94.4558C233.989 94.4183 233.258 94.4353 233.355 94.4595C233.387 94.4676 234.012 94.4862 234.002 94.4558ZM289.904 94.4534C289.569 94.4191 290.592 94.3856 290.895 94.4256C291.042 94.4833 289.947 94.4573 289.904 94.4534ZM257.432 94.4055C257.466 94.3497 256.324 94.3812 256.774 94.4274C256.886 94.439 257.42 94.4241 257.432 94.4055ZM268.367 94.3386C267.601 94.4051 270.818 94.4523 269.973 94.3694C269.912 94.3635 268.434 94.333 268.367 94.3386ZM273.622 94.3801C273.49 94.3728 273.555 94.1855 274.102 94.2577C274.174 94.2671 273.838 94.3166 273.897 94.3279C273.932 94.3344 275.121 94.3607 275.176 94.3563C275.235 94.3514 275.165 94.2913 275.225 94.2846C275.293 94.2771 276.025 94.3298 276.408 94.3304C277.131 94.3314 277.209 94.2814 277.268 94.2812C277.441 94.2809 277.731 94.3164 278.081 94.3163C279.845 94.3159 282.543 94.2736 283.942 94.3795C282.697 94.337 281.511 94.3821 280.273 94.396C280.636 94.2917 278.451 94.4763 279.729 94.356C279.141 94.3821 274.055 94.403 273.623 94.3801C273.623 94.3801 273.622 94.3801 273.622 94.3801ZM212.474 94.3319C212.797 94.268 211.139 94.2823 210.998 94.3563C211.217 94.3666 212.434 94.3391 212.474 94.3319ZM220.127 94.1759C220.281 94.1649 220.427 94.0399 221.235 94.1033C221.235 94.1033 221.236 94.1033 221.237 94.1033C221.473 94.1218 221.204 94.1523 221.247 94.1631C221.263 94.1676 222 94.2297 221.388 94.2397C220.455 94.2551 221.3 94.1468 220.802 94.1454C220.742 94.1453 219.8 94.213 219.855 94.2278C219.861 94.2296 220.144 94.2152 220.191 94.2214C220.367 94.2446 220.281 94.2837 220.306 94.2855C220.388 94.2903 221.877 94.2238 222.093 94.2818C222.163 94.3006 219.72 94.3438 219.625 94.334C219.564 94.3279 219.59 94.2196 219.527 94.2089C219.495 94.2036 218.512 94.2442 218.385 94.2342C218.348 94.2314 218.319 94.2283 218.299 94.2257C218.447 94.2592 217.557 94.2568 217.584 94.219C217.6 94.2041 218.213 94.2127 218.234 94.2153C218.244 94.2164 218.252 94.2179 218.26 94.219C218.133 94.1781 220.208 94.18 219.76 94.1192C220.361 94.0859 219.675 94.2084 220.127 94.1759ZM223.017 94.1091C222.955 94.1205 222.893 94.1319 222.831 94.1433C223.884 94.1154 225.098 94.1703 226.311 94.1698C226.619 94.1698 226.265 94.1001 226.668 94.1192C226.991 94.1344 227.349 94.1991 227.173 94.2135C227.13 94.2171 226.472 94.175 226.143 94.1793C225.171 94.1921 225.417 94.2519 225.36 94.2535C225.297 94.2552 224.685 94.2131 224.351 94.215C223.511 94.2199 223.127 94.2565 221.98 94.2086C222.642 94.1692 222.279 94.0837 223.017 94.1091ZM262.256 94.2364C262.296 94.1988 262.985 94.2321 263.236 94.2266C263.196 94.2643 262.507 94.2308 262.256 94.2364ZM159.598 94.1875C159.387 94.2493 160.973 94.2646 160.555 94.2132C160.462 94.2018 159.798 94.188 159.598 94.1875ZM166.723 94.2251C166.935 94.208 166.081 94.1636 166.082 94.2114C166.084 94.2267 166.696 94.2273 166.723 94.2251ZM236.625 94.1698C236.665 94.1679 237.249 94.1817 237.267 94.1848C237.654 94.2503 235.733 94.2125 236.625 94.1698ZM175.384 94.1491C174.644 94.1895 176.87 94.2071 176.19 94.1555C176.156 94.153 175.42 94.1471 175.384 94.1491ZM178.478 94.1378C178.3 94.14 177.513 94.1199 177.503 94.1387C177.487 94.1691 178.388 94.1899 178.478 94.1378ZM251.264 94.1503C251.178 94.0808 252.216 94.1334 252.577 94.1247C252.663 94.1943 251.624 94.1415 251.264 94.1503ZM244.712 94.099C249.088 94.0442 248.123 94.1928 244.451 94.1329C244.446 94.0883 244.436 94.1025 244.712 94.099ZM250.315 94.1073C250.156 94.1518 249.659 94.1386 249.324 94.1351C249.384 94.1041 250.073 94.1153 250.315 94.1073ZM157.71 94.092C157.984 94.0357 159.2 94.1051 158.983 94.1283C158.933 94.1334 157.609 94.123 157.71 94.092ZM236.992 94.1103C236.89 94.0427 238.204 94.0703 238.304 94.0853C238.71 94.1457 237.098 94.0954 236.992 94.1103ZM257.475 94.0908C257.707 94.0378 258.366 94.0651 258.789 94.0658C258.596 94.1111 257.834 94.0918 257.475 94.0908ZM254.415 94.0493C254.441 94.0473 255.033 94.052 255.059 94.0545C255.543 94.1062 253.871 94.093 254.415 94.0493ZM126.57 94.0005C126.59 93.9988 127.037 94.0021 127.053 94.0041C127.452 94.055 126.109 94.0446 126.57 94.0005Z" fill="black" fill-opacity="0.65"/>
<path d="M277.016 73L277.732 68.6364H278.413L277.697 73H277.016ZM275.062 71.9176L275.175 71.2358H278.584L278.471 71.9176H275.062ZM275.482 73L276.197 68.6364H276.879L276.163 73H275.482ZM275.311 70.4006L275.426 69.7188H278.835L278.72 70.4006H275.311ZM282.537 68.6364V73H281.615V69.5121H281.589L280.59 70.1385V69.3203L281.67 68.6364H282.537ZM285.187 73.0597C284.869 73.0597 284.586 73.005 284.337 72.8956C284.09 72.7848 283.895 72.6328 283.751 72.4396C283.609 72.245 283.536 72.0206 283.532 71.7663H284.461C284.466 71.8729 284.501 71.9666 284.565 72.0476C284.631 72.1271 284.717 72.1889 284.825 72.233C284.933 72.277 285.055 72.299 285.189 72.299C285.33 72.299 285.454 72.2741 285.562 72.2244C285.67 72.1747 285.755 72.1058 285.816 72.0178C285.877 71.9297 285.907 71.8281 285.907 71.7131C285.907 71.5966 285.875 71.4936 285.809 71.4041C285.746 71.3132 285.653 71.2422 285.532 71.1911C285.413 71.1399 285.271 71.1143 285.106 71.1143H284.699V70.4368H285.106C285.246 70.4368 285.368 70.4126 285.475 70.3643C285.583 70.3161 285.667 70.2493 285.726 70.1641C285.786 70.0774 285.816 69.9766 285.816 69.8615C285.816 69.7521 285.79 69.6562 285.737 69.5739C285.686 69.4901 285.613 69.4247 285.52 69.3778C285.427 69.331 285.319 69.3075 285.196 69.3075C285.071 69.3075 284.956 69.3303 284.853 69.3757C284.749 69.4197 284.666 69.483 284.604 69.5653C284.541 69.6477 284.508 69.7443 284.503 69.8551H283.619C283.623 69.6037 283.695 69.3821 283.834 69.1903C283.974 68.9986 284.161 68.8487 284.397 68.7408C284.634 68.6314 284.902 68.5767 285.2 68.5767C285.501 68.5767 285.765 68.6314 285.991 68.7408C286.216 68.8501 286.392 68.9979 286.517 69.1839C286.643 69.3686 286.706 69.576 286.704 69.8061C286.706 70.0504 286.63 70.2543 286.476 70.4176C286.324 70.581 286.126 70.6847 285.882 70.7287V70.7628C286.203 70.804 286.447 70.9155 286.615 71.0973C286.784 71.2777 286.868 71.5036 286.866 71.7749C286.868 72.0234 286.796 72.2443 286.651 72.4375C286.508 72.6307 286.309 72.7827 286.057 72.8935C285.804 73.0043 285.514 73.0597 285.187 73.0597ZM289.123 73.0597C288.822 73.0597 288.554 73.0043 288.318 72.8935C288.083 72.7827 287.897 72.63 287.76 72.4354C287.622 72.2408 287.55 72.0178 287.544 71.7663H288.439C288.449 71.9354 288.52 72.0724 288.652 72.1776C288.784 72.2827 288.941 72.3352 289.123 72.3352C289.268 72.3352 289.396 72.3033 289.507 72.2393C289.619 72.174 289.706 72.0838 289.769 71.9688C289.833 71.8523 289.865 71.7187 289.865 71.5682C289.865 71.4148 289.832 71.2798 289.767 71.1634C289.703 71.0469 289.614 70.956 289.5 70.8906C289.387 70.8253 289.257 70.7919 289.11 70.7905C288.983 70.7905 288.858 70.8168 288.738 70.8693C288.618 70.9219 288.525 70.9936 288.458 71.0845L287.638 70.9375L287.845 68.6364H290.512V69.3906H288.605L288.493 70.4837H288.518C288.595 70.3757 288.711 70.2862 288.865 70.2152C289.02 70.1442 289.194 70.1087 289.385 70.1087C289.648 70.1087 289.882 70.1705 290.088 70.294C290.294 70.4176 290.457 70.5874 290.576 70.8033C290.696 71.0178 290.755 71.2649 290.753 71.5447C290.755 71.8388 290.686 72.1001 290.549 72.3288C290.412 72.5561 290.221 72.7351 289.975 72.8658C289.731 72.995 289.447 73.0597 289.123 73.0597Z" fill="black" fill-opacity="0.75"/>
<rect x="268.409" y="62" width="28.3937" height="18" rx="3" stroke="black" stroke-opacity="0.75" stroke-width="2"/>
<line x1="266.118" y1="62.5" x2="257" y2="62.5" stroke="black" stroke-opacity="0.5"/>
<line x1="266.079" y1="64.5" x2="260" y2="64.5" stroke="black" stroke-opacity="0.5"/>
<line x1="266" y1="66.5" x2="262" y2="66.5" stroke="black" stroke-opacity="0.5"/>
<line x1="266" y1="75.5" x2="262" y2="75.5" stroke="black" stroke-opacity="0.5"/>
<line x1="266.118" y1="79.5" x2="257" y2="79.5" stroke="black" stroke-opacity="0.5"/>
<line x1="266.079" y1="77.5" x2="260" y2="77.5" stroke="black" stroke-opacity="0.5"/>
<path d="M161.016 73L161.732 68.6364H162.413L161.697 73H161.016ZM159.062 71.9176L159.175 71.2358H162.584L162.471 71.9176H159.062ZM159.482 73L160.197 68.6364H160.879L160.163 73H159.482ZM159.311 70.4006L159.426 69.7188H162.835L162.72 70.4006H159.311ZM166.537 68.6364V73H165.615V69.5121H165.589L164.59 70.1385V69.3203L165.67 68.6364H166.537ZM169.187 73.0597C168.869 73.0597 168.586 73.005 168.337 72.8956C168.09 72.7848 167.895 72.6328 167.751 72.4396C167.609 72.245 167.536 72.0206 167.532 71.7663H168.461C168.466 71.8729 168.501 71.9666 168.565 72.0476C168.631 72.1271 168.717 72.1889 168.825 72.233C168.933 72.277 169.055 72.299 169.189 72.299C169.33 72.299 169.454 72.2741 169.562 72.2244C169.67 72.1747 169.755 72.1058 169.816 72.0178C169.877 71.9297 169.907 71.8281 169.907 71.7131C169.907 71.5966 169.875 71.4936 169.809 71.4041C169.746 71.3132 169.653 71.2422 169.532 71.1911C169.413 71.1399 169.271 71.1143 169.106 71.1143H168.699V70.4368H169.106C169.246 70.4368 169.368 70.4126 169.475 70.3643C169.583 70.3161 169.667 70.2493 169.726 70.1641C169.786 70.0774 169.816 69.9766 169.816 69.8615C169.816 69.7521 169.79 69.6562 169.737 69.5739C169.686 69.4901 169.613 69.4247 169.52 69.3778C169.427 69.331 169.319 69.3075 169.196 69.3075C169.071 69.3075 168.956 69.3303 168.853 69.3757C168.749 69.4197 168.666 69.483 168.604 69.5653C168.541 69.6477 168.508 69.7443 168.503 69.8551H167.619C167.623 69.6037 167.695 69.3821 167.834 69.1903C167.974 68.9986 168.161 68.8487 168.397 68.7408C168.634 68.6314 168.902 68.5767 169.2 68.5767C169.501 68.5767 169.765 68.6314 169.991 68.7408C170.216 68.8501 170.392 68.9979 170.517 69.1839C170.643 69.3686 170.706 69.576 170.704 69.8061C170.706 70.0504 170.63 70.2543 170.476 70.4176C170.324 70.581 170.126 70.6847 169.882 70.7287V70.7628C170.203 70.804 170.447 70.9155 170.615 71.0973C170.784 71.2777 170.868 71.5036 170.866 71.7749C170.868 72.0234 170.796 72.2443 170.651 72.4375C170.508 72.6307 170.309 72.7827 170.057 72.8935C169.804 73.0043 169.514 73.0597 169.187 73.0597ZM171.702 73L173.511 69.4205V69.3906H171.404V68.6364H174.466V69.4013L172.654 73H171.702Z" fill="black" fill-opacity="0.75"/>
<rect x="153" y="62" width="28.3937" height="18" rx="3" stroke="black" stroke-opacity="0.75" stroke-width="2"/>
<line x1="150.118" y1="62.5" x2="141" y2="62.5" stroke="black" stroke-opacity="0.5"/>
<line x1="150.079" y1="64.5" x2="144" y2="64.5" stroke="black" stroke-opacity="0.5"/>
<line x1="150" y1="66.5" x2="146" y2="66.5" stroke="black" stroke-opacity="0.5"/>
<line x1="150" y1="75.5" x2="146" y2="75.5" stroke="black" stroke-opacity="0.5"/>
<line x1="150.118" y1="79.5" x2="141" y2="79.5" stroke="black" stroke-opacity="0.5"/>
<line x1="150.079" y1="77.5" x2="144" y2="77.5" stroke="black" stroke-opacity="0.5"/>
<path d="M218.992 123L219.708 118.636H220.39L219.674 123H218.992ZM217.038 121.918L217.151 121.236H220.56L220.447 121.918H217.038ZM217.458 123L218.174 118.636H218.856L218.14 123H217.458ZM217.288 120.401L217.403 119.719H220.812L220.697 120.401H217.288ZM224.514 118.636V123H223.591V119.512H223.566L222.566 120.138V119.32L223.647 118.636H224.514ZM227.164 123.06C226.846 123.06 226.562 123.005 226.314 122.896C226.067 122.785 225.871 122.633 225.728 122.44C225.586 122.245 225.513 122.021 225.508 121.766H226.437C226.443 121.873 226.478 121.967 226.542 122.048C226.607 122.127 226.694 122.189 226.802 122.233C226.91 122.277 227.031 122.299 227.166 122.299C227.307 122.299 227.431 122.274 227.539 122.224C227.647 122.175 227.731 122.106 227.792 122.018C227.854 121.93 227.884 121.828 227.884 121.713C227.884 121.597 227.851 121.494 227.786 121.404C227.722 121.313 227.63 121.242 227.509 121.191C227.39 121.14 227.248 121.114 227.083 121.114H226.676V120.437H227.083C227.222 120.437 227.345 120.413 227.452 120.364C227.559 120.316 227.643 120.249 227.703 120.164C227.763 120.077 227.792 119.977 227.792 119.862C227.792 119.752 227.766 119.656 227.714 119.574C227.662 119.49 227.59 119.425 227.496 119.378C227.404 119.331 227.296 119.308 227.172 119.308C227.047 119.308 226.933 119.33 226.829 119.376C226.726 119.42 226.643 119.483 226.58 119.565C226.518 119.648 226.484 119.744 226.48 119.855H225.596C225.6 119.604 225.672 119.382 225.811 119.19C225.95 118.999 226.138 118.849 226.373 118.741C226.611 118.631 226.878 118.577 227.177 118.577C227.478 118.577 227.741 118.631 227.967 118.741C228.193 118.85 228.368 118.998 228.493 119.184C228.62 119.369 228.682 119.576 228.681 119.806C228.682 120.05 228.606 120.254 228.453 120.418C228.301 120.581 228.103 120.685 227.858 120.729V120.763C228.18 120.804 228.424 120.915 228.591 121.097C228.76 121.278 228.844 121.504 228.843 121.775C228.844 122.023 228.773 122.244 228.628 122.438C228.484 122.631 228.286 122.783 228.033 122.893C227.78 123.004 227.491 123.06 227.164 123.06ZM231.181 123.06C230.956 123.058 230.74 123.021 230.531 122.947C230.324 122.873 230.137 122.753 229.973 122.587C229.808 122.42 229.677 122.2 229.581 121.926C229.485 121.652 229.438 121.315 229.438 120.916C229.439 120.55 229.481 120.222 229.564 119.934C229.647 119.644 229.767 119.398 229.922 119.197C230.078 118.995 230.265 118.842 230.482 118.737C230.699 118.63 230.943 118.577 231.213 118.577C231.504 118.577 231.761 118.634 231.984 118.747C232.207 118.859 232.386 119.012 232.521 119.205C232.657 119.398 232.74 119.615 232.768 119.855H231.858C231.823 119.703 231.748 119.584 231.635 119.497C231.521 119.411 231.38 119.367 231.213 119.367C230.929 119.367 230.713 119.491 230.565 119.738C230.419 119.985 230.344 120.321 230.341 120.746H230.371C230.436 120.616 230.525 120.506 230.635 120.415C230.748 120.323 230.875 120.253 231.017 120.205C231.16 120.155 231.311 120.13 231.471 120.13C231.729 120.13 231.959 120.191 232.161 120.313C232.363 120.434 232.522 120.6 232.638 120.812C232.755 121.023 232.813 121.266 232.813 121.538C232.813 121.834 232.744 122.097 232.606 122.327C232.47 122.557 232.279 122.737 232.033 122.868C231.789 122.997 231.505 123.061 231.181 123.06ZM231.176 122.335C231.319 122.335 231.446 122.301 231.558 122.233C231.67 122.165 231.758 122.072 231.822 121.956C231.886 121.839 231.918 121.709 231.918 121.564C231.918 121.419 231.886 121.289 231.822 121.174C231.76 121.059 231.673 120.967 231.562 120.899C231.451 120.831 231.325 120.797 231.183 120.797C231.076 120.797 230.978 120.817 230.887 120.857C230.797 120.896 230.718 120.952 230.65 121.023C230.583 121.094 230.531 121.176 230.493 121.27C230.454 121.362 230.435 121.461 230.435 121.566C230.435 121.707 230.467 121.835 230.531 121.952C230.596 122.068 230.684 122.161 230.795 122.231C230.907 122.3 231.034 122.335 231.176 122.335Z" fill="black" fill-opacity="0.75"/>
<rect x="211" y="112" width="28.3937" height="18" rx="3" stroke="black" stroke-opacity="0.75" stroke-width="2"/>
<line x1="208.118" y1="112.5" x2="199" y2="112.5" stroke="black" stroke-opacity="0.5"/>
<line x1="208.118" y1="114.5" x2="202.039" y2="114.5" stroke="black" stroke-opacity="0.5"/>
<line x1="208" y1="116.5" x2="204" y2="116.5" stroke="black" stroke-opacity="0.5"/>
<line x1="208.118" y1="129.5" x2="199" y2="129.5" stroke="black" stroke-opacity="0.5"/>
<line x1="208.079" y1="127.5" x2="202" y2="127.5" stroke="black" stroke-opacity="0.5"/>
<line x1="208" y1="125.5" x2="204" y2="125.5" stroke="black" stroke-opacity="0.5"/>
<path d="M393 54C384.949 54.0073 377.069 56.3255 370.297 60.6791C363.525 65.0327 358.144 71.2387 354.795 78.56C352.886 78.1881 350.945 78.0005 349 78C341.044 78 333.413 81.1607 327.787 86.7868C322.161 92.4129 319 100.044 319 108C319 115.956 322.161 123.587 327.787 129.213C333.413 134.839 341.044 138 349 138H393C404.139 138 414.822 133.575 422.698 125.698C430.575 117.822 435 107.139 435 96C435 84.8609 430.575 74.178 422.698 66.3015C414.822 58.425 404.139 54 393 54ZM393 134H349C345.407 133.997 341.853 133.249 338.564 131.803C335.274 130.358 332.32 128.246 329.887 125.602C327.455 122.957 325.597 119.837 324.431 116.438C323.265 113.04 322.816 109.436 323.112 105.855C323.408 102.274 324.444 98.7938 326.153 95.6332C327.862 92.4725 330.208 89.7004 333.042 87.4917C335.876 85.2831 339.137 83.6859 342.62 82.8009C346.102 81.916 349.73 81.7624 353.275 82.35C351.764 86.7422 350.996 91.3553 351 96C351 96.5304 351.211 97.0391 351.586 97.4142C351.961 97.7893 352.47 98 353 98C353.53 98 354.039 97.7893 354.414 97.4142C354.789 97.0391 355 96.5304 355 96C355 88.4843 357.229 81.1374 361.404 74.8883C365.58 68.6393 371.514 63.7687 378.458 60.8926C385.402 58.0164 393.042 57.2639 400.413 58.7302C407.785 60.1964 414.556 63.8155 419.87 69.1299C425.184 74.4443 428.804 81.2153 430.27 88.5866C431.736 95.9578 430.984 103.598 428.107 110.542C425.231 117.486 420.361 123.42 414.112 127.596C407.863 131.771 400.516 134 393 134Z" fill="black" fill-opacity="0.75"/>
</svg>
