<svg width="428" height="208" viewBox="0 0 428 208" fill="none" xmlns="http://www.w3.org/2000/svg">
<mask id="mask0_2125_4561" style="mask-type:alpha" maskUnits="userSpaceOnUse" x="0" y="0" width="428" height="208">
<rect width="428" height="208" fill="url(#paint0_linear_2125_4561)"/>
</mask>
<g mask="url(#mask0_2125_4561)">
<path d="M0 30C0 13.4315 13.4315 0 30 0H398C414.569 0 428 13.4315 428 30V208H0V30Z" fill="#F5F5F5"/>
<g filter="url(#filter0_dd_2125_4561)">
<rect x="24" y="24" width="120" height="148" rx="8" fill="white"/>
<g clip-path="url(#clip0_2125_4561)">
<mask id="mask1_2125_4561" style="mask-type:luminance" maskUnits="userSpaceOnUse" x="36" y="28" width="96" height="97">
<path d="M131.587 28.0129H36.4077V124.049H131.587V28.0129Z" fill="white"/>
</mask>
<g mask="url(#mask1_2125_4561)">
<mask id="mask2_2125_4561" style="mask-type:luminance" maskUnits="userSpaceOnUse" x="52" y="44" width="64" height="64">
<path d="M116 44H52V108H116V44Z" fill="white"/>
</mask>
<g mask="url(#mask2_2125_4561)">
<path d="M76.5469 67.2959V61.2159C76.5469 60.7038 76.7374 60.3197 77.1811 60.064L89.2964 53.024C90.9455 52.064 92.9119 51.6162 94.9413 51.6162C102.553 51.6162 107.374 57.5683 107.374 63.9041C107.374 64.352 107.374 64.864 107.31 65.3761L94.751 57.952C93.9899 57.5042 93.2285 57.5042 92.4674 57.952L76.5469 67.2959ZM104.836 90.9761V76.4478C104.836 75.5516 104.455 74.9116 103.694 74.4637L87.7738 65.1197L92.9749 62.1115C93.4188 61.8558 93.7996 61.8558 94.2435 62.1115L106.359 69.1515C109.847 71.1998 112.194 75.5516 112.194 79.7753C112.194 84.6391 109.34 89.1194 104.836 90.9755V90.9761ZM72.8046 78.1762L67.6035 75.1043C67.1597 74.8486 66.9692 74.4644 66.9692 73.9523V59.8724C66.9692 53.0246 72.1703 47.8403 79.2111 47.8403C81.8754 47.8403 84.3487 48.7365 86.4423 50.3364L73.9469 57.6326C73.186 58.0804 72.8053 58.7204 72.8053 59.6167V78.1767L72.8046 78.1762ZM83.9999 84.704L76.5469 80.4801V71.5204L83.9999 67.2966L91.4525 71.5204V80.4801L83.9999 84.704ZM88.7888 104.16C86.1245 104.16 83.6513 103.264 81.5577 101.664L94.053 94.3679C94.814 93.9201 95.1947 93.2802 95.1947 92.3838V73.8238L100.46 76.8957C100.903 77.1514 101.094 77.5355 101.094 78.0477V92.1276C101.094 98.9754 95.829 104.16 88.7888 104.16V104.16ZM73.756 89.8883L61.6407 82.8485C58.1519 80.8001 55.8053 76.4484 55.8053 72.2246C55.8053 67.2966 58.7231 62.8806 63.2263 61.0245V75.6164C63.2263 76.5126 63.6071 77.1526 64.368 77.6005L80.2255 86.8801L75.0244 89.8883C74.5806 90.144 74.1998 90.144 73.756 89.8883ZM73.0587 100.384C65.8912 100.384 60.6264 94.9443 60.6264 88.2242C60.6264 87.7122 60.69 87.2001 60.7531 86.6881L73.2485 93.9843C74.0094 94.4322 74.771 94.4322 75.5319 93.9843L91.4525 84.7046V90.7847C91.4525 91.2967 91.2621 91.6809 90.8182 91.9366L78.7031 98.9766C77.0538 99.9365 75.0875 100.384 73.058 100.384H73.0587ZM88.7888 108C96.4638 108 102.87 102.496 104.329 95.1999C111.433 93.3438 116 86.6238 116 79.776C116 75.2957 114.097 70.9441 110.672 67.808C110.989 66.4639 111.18 65.1197 111.18 63.7763C111.18 54.6244 103.822 47.776 95.322 47.776C93.6099 47.776 91.9606 48.0317 90.3114 48.608C87.4567 45.7919 83.524 44 79.2111 44C71.5362 44 65.1302 49.5037 63.6708 56.7999C56.5669 58.6561 52 65.3761 52 72.2239C52 76.7041 53.9027 81.0558 57.3279 84.1919C57.0108 85.536 56.8204 86.8801 56.8204 88.2237C56.8204 97.3756 64.1783 104.224 72.6778 104.224C74.3901 104.224 76.0394 103.968 77.6886 103.392C80.5427 106.208 84.4753 108 88.7888 108Z" fill="black"/>
</g>
</g>
</g>
<path d="M63.792 145.27C62.814 145.27 61.986 145.051 61.308 144.613C60.63 144.175 60.114 143.572 59.76 142.804C59.412 142.03 59.232 141.142 59.22 140.14C59.232 139.12 59.418 138.226 59.778 137.458C60.138 136.684 60.657 136.084 61.335 135.658C62.013 135.226 62.835 135.01 63.801 135.01C64.785 135.01 65.64 135.25 66.366 135.73C67.098 136.21 67.599 136.867 67.869 137.701L66.573 138.115C66.345 137.533 65.982 137.083 65.484 136.765C64.992 136.441 64.428 136.279 63.792 136.279C63.078 136.279 62.487 136.444 62.019 136.774C61.551 137.098 61.203 137.551 60.975 138.133C60.747 138.715 60.63 139.384 60.624 140.14C60.636 141.304 60.906 142.24 61.434 142.948C61.962 143.65 62.748 144.001 63.792 144.001C64.452 144.001 65.013 143.851 65.475 143.551C65.943 143.245 66.297 142.801 66.537 142.219L67.869 142.615C67.509 143.479 66.981 144.139 66.285 144.595C65.589 145.045 64.758 145.27 63.792 145.27ZM73.5221 145.27C72.5561 145.27 71.7311 145.051 71.0471 144.613C70.3631 144.175 69.8381 143.569 69.4721 142.795C69.1061 142.021 68.9231 141.133 68.9231 140.131C68.9231 139.111 69.1091 138.217 69.4811 137.449C69.8531 136.681 70.3811 136.084 71.0651 135.658C71.7551 135.226 72.5741 135.01 73.5221 135.01C74.4941 135.01 75.3221 135.229 76.0061 135.667C76.6961 136.099 77.2211 136.702 77.5811 137.476C77.9471 138.244 78.1301 139.129 78.1301 140.131C78.1301 141.151 77.9471 142.048 77.5811 142.822C77.2151 143.59 76.6871 144.19 75.9971 144.622C75.3071 145.054 74.4821 145.27 73.5221 145.27ZM73.5221 144.001C74.6021 144.001 75.4061 143.644 75.9341 142.93C76.4621 142.21 76.7261 141.277 76.7261 140.131C76.7261 138.955 76.4591 138.019 75.9251 137.323C75.3971 136.627 74.5961 136.279 73.5221 136.279C72.7961 136.279 72.1961 136.444 71.7221 136.774C71.2541 137.098 70.9031 137.551 70.6691 138.133C70.4411 138.709 70.3271 139.375 70.3271 140.131C70.3271 141.301 70.5971 142.24 71.1371 142.948C71.6771 143.65 72.4721 144.001 73.5221 144.001ZM83.8865 145.27C82.9805 145.27 82.2065 145.045 81.5645 144.595C80.9225 144.139 80.4305 143.524 80.0885 142.75C79.7465 141.976 79.5755 141.103 79.5755 140.131C79.5755 139.165 79.7435 138.295 80.0795 137.521C80.4215 136.747 80.9105 136.135 81.5465 135.685C82.1825 135.235 82.9445 135.01 83.8325 135.01C84.7445 135.01 85.5125 135.232 86.1365 135.676C86.7605 136.12 87.2315 136.729 87.5495 137.503C87.8735 138.271 88.0355 139.147 88.0355 140.131C88.0355 141.097 87.8765 141.97 87.5585 142.75C87.2405 143.524 86.7725 144.139 86.1545 144.595C85.5365 145.045 84.7805 145.27 83.8865 145.27ZM84.0215 144.037C84.7115 144.037 85.2815 143.869 85.7315 143.533C86.1815 143.197 86.5175 142.735 86.7395 142.147C86.9615 141.553 87.0725 140.881 87.0725 140.131C87.0725 139.369 86.9615 138.697 86.7395 138.115C86.5175 137.527 86.1815 137.068 85.7315 136.738C85.2875 136.408 84.7265 136.243 84.0485 136.243C83.3525 136.243 82.7765 136.414 82.3205 136.756C81.8645 137.098 81.5255 137.563 81.3035 138.151C81.0875 138.739 80.9795 139.399 80.9795 140.131C80.9795 140.869 81.0905 141.535 81.3125 142.129C81.5405 142.717 81.8795 143.182 82.3295 143.524C82.7795 143.866 83.3435 144.037 84.0215 144.037ZM87.0725 145V137.683H86.9285V132.04H88.2605V145H87.0725ZM94.8984 145.27C93.9504 145.27 93.1284 145.06 92.4324 144.64C91.7424 144.22 91.2054 143.629 90.8214 142.867C90.4374 142.105 90.2454 141.211 90.2454 140.185C90.2454 139.123 90.4344 138.205 90.8124 137.431C91.1904 136.657 91.7214 136.06 92.4054 135.64C93.0954 135.22 93.9084 135.01 94.8444 135.01C95.8044 135.01 96.6234 135.232 97.3014 135.676C97.9794 136.114 98.4924 136.744 98.8404 137.566C99.1884 138.388 99.3474 139.369 99.3174 140.509H97.9674V140.041C97.9434 138.781 97.6704 137.83 97.1484 137.188C96.6324 136.546 95.8764 136.225 94.8804 136.225C93.8364 136.225 93.0354 136.564 92.4774 137.242C91.9254 137.92 91.6494 138.886 91.6494 140.14C91.6494 141.364 91.9254 142.315 92.4774 142.993C93.0354 143.665 93.8244 144.001 94.8444 144.001C95.5404 144.001 96.1464 143.842 96.6624 143.524C97.1844 143.2 97.5954 142.735 97.8954 142.129L99.1284 142.606C98.7444 143.452 98.1774 144.109 97.4274 144.577C96.6834 145.039 95.8404 145.27 94.8984 145.27ZM91.1814 140.509V139.402H98.6064V140.509H91.1814ZM99.8831 145L103.681 140.086L99.9641 135.28H101.548L104.455 139.069L107.335 135.28H108.919L105.202 140.086L109.009 145H107.416L104.455 141.103L101.476 145H99.8831Z" fill="black"/>
</g>
<g filter="url(#filter1_dd_2125_4561)">
<rect x="154" y="24" width="120" height="148" rx="8" fill="white"/>
<g clip-path="url(#clip1_2125_4561)">
<mask id="mask3_2125_4561" style="mask-type:luminance" maskUnits="userSpaceOnUse" x="182" y="44" width="64" height="64">
<path d="M246 44H182V108H246V44Z" fill="white"/>
</mask>
<g mask="url(#mask3_2125_4561)">
<path d="M194.673 86.5019L207.19 79.4791L207.4 78.8692L207.19 78.5298H206.58L204.488 78.401L197.337 78.2077L191.134 77.95L185.125 77.6278L183.613 77.3057L182.196 75.4372L182.342 74.5051L183.613 73.6504L185.434 73.8093L189.459 74.0842L195.498 74.5009L199.879 74.7586L206.37 75.4329H207.4L207.546 75.0163L207.194 74.7586L206.919 74.5009L200.67 70.2657L193.905 65.79L190.361 63.2128L188.445 61.907L187.479 60.6829L187.062 58.0112L188.802 56.0955L191.138 56.2544L191.735 56.4133L194.102 58.2345L199.158 62.1476L205.76 67.0098L206.726 67.8131L207.113 67.5382L207.16 67.3449L206.726 66.619L203.135 60.1288L199.304 53.5269L197.599 50.7908L197.148 49.15C196.989 48.4756 196.873 47.9086 196.873 47.2171L198.853 44.5282L199.948 44.176L202.59 44.5282L203.702 45.4947L205.343 49.2488L208.002 55.1591L212.125 63.1956L213.332 65.5795L213.977 67.7873L214.217 68.4617H214.634V68.0751L214.973 63.5478L215.6 57.9897L216.21 50.838L216.421 48.8235L217.417 46.4096L219.397 45.1038L220.943 45.8426L222.215 47.6638L222.039 48.8407L221.283 53.7545L219.801 61.4517L218.834 66.6061H219.397L220.041 65.9618L222.649 62.4998L227.03 57.0233L228.963 54.8498L231.218 52.4488L232.665 51.3062H235.401L237.416 54.3L236.514 57.3927L233.696 60.9664L231.36 63.9945L228.009 68.5046L225.917 72.1127L226.111 72.4005L226.609 72.3532L234.177 70.7425L238.266 70.0037L243.146 69.1661L245.354 70.197L245.594 71.245L244.727 73.3884L239.508 74.677L233.387 75.9011L224.272 78.0574L224.161 78.139L224.29 78.2979L228.396 78.6845L230.153 78.779H234.452L242.459 79.376L244.55 80.7591L245.805 82.4515L245.594 83.74L242.373 85.3809L238.026 84.35L227.88 81.936L224.401 81.0684H223.92V81.3562L226.819 84.1911L232.133 88.9889L238.786 95.1742L239.125 96.7033L238.271 97.9103L237.369 97.7814L231.523 93.383L229.268 91.4029L224.161 87.1033H223.821V87.5543L224.998 89.2767L231.214 98.619L231.536 101.484L231.085 102.416L229.474 102.979L227.704 102.657L224.066 97.5495L220.312 91.7981L217.284 86.6437L216.914 86.8541L215.128 106.101L214.29 107.085L212.357 107.824L210.746 106.6L209.892 104.62L210.746 100.707L211.777 95.5994L212.615 91.5404L213.371 86.4976L213.822 84.8225L213.792 84.7108L213.422 84.758L209.621 89.9769L203.84 97.79L199.265 102.687L198.17 103.12L196.271 102.137L196.447 100.38L197.508 98.8166L203.84 90.7629L207.658 85.7717L210.124 82.8896L210.106 82.4729H209.96L193.144 93.3916L190.15 93.7782L188.862 92.5712L189.021 90.5911L189.631 89.9468L194.686 86.4676L194.669 86.4847L194.673 86.5019Z" fill="#D97757"/>
</g>
</g>
<path d="M191.292 145.27C190.314 145.27 189.486 145.051 188.808 144.613C188.13 144.175 187.614 143.572 187.26 142.804C186.912 142.03 186.732 141.142 186.72 140.14C186.732 139.12 186.918 138.226 187.278 137.458C187.638 136.684 188.157 136.084 188.835 135.658C189.513 135.226 190.335 135.01 191.301 135.01C192.285 135.01 193.14 135.25 193.866 135.73C194.598 136.21 195.099 136.867 195.369 137.701L194.073 138.115C193.845 137.533 193.482 137.083 192.984 136.765C192.492 136.441 191.928 136.279 191.292 136.279C190.578 136.279 189.987 136.444 189.519 136.774C189.051 137.098 188.703 137.551 188.475 138.133C188.247 138.715 188.13 139.384 188.124 140.14C188.136 141.304 188.406 142.24 188.934 142.948C189.462 143.65 190.248 144.001 191.292 144.001C191.952 144.001 192.513 143.851 192.975 143.551C193.443 143.245 193.797 142.801 194.037 142.219L195.369 142.615C195.009 143.479 194.481 144.139 193.785 144.595C193.089 145.045 192.258 145.27 191.292 145.27ZM197.143 145V131.77H198.466V145H197.143ZM203.945 145.27C203.213 145.27 202.598 145.138 202.1 144.874C201.608 144.61 201.239 144.259 200.993 143.821C200.747 143.383 200.624 142.906 200.624 142.39C200.624 141.862 200.729 141.412 200.939 141.04C201.155 140.662 201.446 140.353 201.812 140.113C202.184 139.873 202.613 139.69 203.099 139.564C203.591 139.444 204.134 139.339 204.728 139.249C205.328 139.153 205.913 139.072 206.483 139.006C207.059 138.934 207.563 138.865 207.995 138.799L207.527 139.087C207.545 138.127 207.359 137.416 206.969 136.954C206.579 136.492 205.901 136.261 204.935 136.261C204.269 136.261 203.705 136.411 203.243 136.711C202.787 137.011 202.466 137.485 202.28 138.133L200.993 137.755C201.215 136.885 201.662 136.21 202.334 135.73C203.006 135.25 203.879 135.01 204.953 135.01C205.841 135.01 206.594 135.178 207.212 135.514C207.836 135.844 208.277 136.324 208.535 136.954C208.655 137.236 208.733 137.551 208.769 137.899C208.805 138.247 208.823 138.601 208.823 138.961V145H207.644V142.561L207.986 142.705C207.656 143.539 207.143 144.175 206.447 144.613C205.751 145.051 204.917 145.27 203.945 145.27ZM204.098 144.127C204.716 144.127 205.256 144.016 205.718 143.794C206.18 143.572 206.552 143.269 206.834 142.885C207.116 142.495 207.299 142.057 207.383 141.571C207.455 141.259 207.494 140.917 207.5 140.545C207.506 140.167 207.509 139.885 207.509 139.699L208.013 139.96C207.563 140.02 207.074 140.08 206.546 140.14C206.024 140.2 205.508 140.269 204.998 140.347C204.494 140.425 204.038 140.518 203.63 140.626C203.354 140.704 203.087 140.815 202.829 140.959C202.571 141.097 202.358 141.283 202.19 141.517C202.028 141.751 201.947 142.042 201.947 142.39C201.947 142.672 202.016 142.945 202.154 143.209C202.298 143.473 202.526 143.692 202.838 143.866C203.156 144.04 203.576 144.127 204.098 144.127ZM214.883 145.243C214.301 145.243 213.791 145.153 213.353 144.973C212.921 144.793 212.552 144.55 212.246 144.244C211.946 143.938 211.703 143.59 211.517 143.2C211.331 142.804 211.196 142.387 211.112 141.949C211.028 141.505 210.986 141.064 210.986 140.626V135.28H212.318V140.239C212.318 140.773 212.369 141.268 212.471 141.724C212.573 142.18 212.735 142.579 212.957 142.921C213.185 143.257 213.476 143.518 213.83 143.704C214.19 143.89 214.625 143.983 215.135 143.983C215.603 143.983 216.014 143.902 216.368 143.74C216.728 143.578 217.028 143.347 217.268 143.047C217.514 142.741 217.7 142.372 217.826 141.94C217.952 141.502 218.015 141.01 218.015 140.464L218.951 140.671C218.951 141.667 218.777 142.504 218.429 143.182C218.081 143.86 217.601 144.373 216.989 144.721C216.377 145.069 215.675 145.243 214.883 145.243ZM218.15 145V142.606H218.015V135.28H219.338V145H218.15ZM225.625 145.27C224.719 145.27 223.945 145.045 223.303 144.595C222.661 144.139 222.169 143.524 221.827 142.75C221.485 141.976 221.314 141.103 221.314 140.131C221.314 139.165 221.482 138.295 221.818 137.521C222.16 136.747 222.649 136.135 223.285 135.685C223.921 135.235 224.683 135.01 225.571 135.01C226.483 135.01 227.251 135.232 227.875 135.676C228.499 136.12 228.97 136.729 229.288 137.503C229.612 138.271 229.774 139.147 229.774 140.131C229.774 141.097 229.615 141.97 229.297 142.75C228.979 143.524 228.511 144.139 227.893 144.595C227.275 145.045 226.519 145.27 225.625 145.27ZM225.76 144.037C226.45 144.037 227.02 143.869 227.47 143.533C227.92 143.197 228.256 142.735 228.478 142.147C228.7 141.553 228.811 140.881 228.811 140.131C228.811 139.369 228.7 138.697 228.478 138.115C228.256 137.527 227.92 137.068 227.47 136.738C227.026 136.408 226.465 136.243 225.787 136.243C225.091 136.243 224.515 136.414 224.059 136.756C223.603 137.098 223.264 137.563 223.042 138.151C222.826 138.739 222.718 139.399 222.718 140.131C222.718 140.869 222.829 141.535 223.051 142.129C223.279 142.717 223.618 143.182 224.068 143.524C224.518 143.866 225.082 144.037 225.76 144.037ZM228.811 145V137.683H228.667V132.04H229.999V145H228.811ZM236.637 145.27C235.689 145.27 234.867 145.06 234.171 144.64C233.481 144.22 232.944 143.629 232.56 142.867C232.176 142.105 231.984 141.211 231.984 140.185C231.984 139.123 232.173 138.205 232.551 137.431C232.929 136.657 233.46 136.06 234.144 135.64C234.834 135.22 235.647 135.01 236.583 135.01C237.543 135.01 238.362 135.232 239.04 135.676C239.718 136.114 240.231 136.744 240.579 137.566C240.927 138.388 241.086 139.369 241.056 140.509H239.706V140.041C239.682 138.781 239.409 137.83 238.887 137.188C238.371 136.546 237.615 136.225 236.619 136.225C235.575 136.225 234.774 136.564 234.216 137.242C233.664 137.92 233.388 138.886 233.388 140.14C233.388 141.364 233.664 142.315 234.216 142.993C234.774 143.665 235.563 144.001 236.583 144.001C237.279 144.001 237.885 143.842 238.401 143.524C238.923 143.2 239.334 142.735 239.634 142.129L240.867 142.606C240.483 143.452 239.916 144.109 239.166 144.577C238.422 145.039 237.579 145.27 236.637 145.27ZM232.92 140.509V139.402H240.345V140.509H232.92Z" fill="black"/>
</g>
<g filter="url(#filter2_dd_2125_4561)">
<rect x="284" y="24" width="120" height="148" rx="8" fill="white"/>
<g clip-path="url(#clip2_2125_4561)">
<path d="M376 76.064C367.697 76.5736 359.866 80.1018 353.984 85.9841C348.102 91.8665 344.574 99.6968 344.064 108H343.936C343.427 99.6965 339.899 91.8657 334.017 85.9832C328.134 80.1007 320.304 76.5727 312 76.064V75.936C320.304 75.4273 328.134 71.8993 334.017 66.0168C339.899 60.1343 343.427 52.3035 343.936 44H344.064C344.574 52.3032 348.102 60.1335 353.984 66.0159C359.866 71.8982 367.697 75.4264 376 75.936V76.064Z" fill="url(#paint1_radial_2125_4561)"/>
</g>
<path d="M321.121 149.59C320.623 149.59 320.131 149.515 319.645 149.365C319.165 149.221 318.721 148.99 318.313 148.672C317.905 148.36 317.563 147.952 317.287 147.448L318.484 146.782C318.754 147.322 319.132 147.709 319.618 147.943C320.11 148.183 320.611 148.303 321.121 148.303C321.823 148.303 322.39 148.171 322.822 147.907C323.26 147.649 323.578 147.265 323.776 146.755C323.974 146.245 324.07 145.609 324.064 144.847V142.255H324.217V135.28H325.396V144.865C325.396 145.141 325.387 145.405 325.369 145.657C325.357 145.915 325.33 146.167 325.288 146.413C325.174 147.139 324.937 147.736 324.577 148.204C324.223 148.672 323.755 149.02 323.173 149.248C322.597 149.476 321.913 149.59 321.121 149.59ZM321.031 145.27C320.125 145.27 319.351 145.045 318.709 144.595C318.067 144.139 317.575 143.524 317.233 142.75C316.891 141.976 316.72 141.103 316.72 140.131C316.72 139.165 316.888 138.295 317.224 137.521C317.566 136.747 318.055 136.135 318.691 135.685C319.327 135.235 320.089 135.01 320.977 135.01C321.889 135.01 322.657 135.232 323.281 135.676C323.905 136.12 324.376 136.729 324.694 137.503C325.018 138.271 325.18 139.147 325.18 140.131C325.18 141.097 325.021 141.97 324.703 142.75C324.385 143.524 323.917 144.139 323.299 144.595C322.681 145.045 321.925 145.27 321.031 145.27ZM321.166 144.037C321.856 144.037 322.426 143.869 322.876 143.533C323.326 143.197 323.662 142.735 323.884 142.147C324.106 141.553 324.217 140.881 324.217 140.131C324.217 139.369 324.106 138.697 323.884 138.115C323.662 137.527 323.326 137.068 322.876 136.738C322.432 136.408 321.871 136.243 321.193 136.243C320.497 136.243 319.921 136.414 319.465 136.756C319.009 137.098 318.67 137.563 318.448 138.151C318.232 138.739 318.124 139.399 318.124 140.131C318.124 140.869 318.235 141.535 318.457 142.129C318.685 142.717 319.024 143.182 319.474 143.524C319.924 143.866 320.488 144.037 321.166 144.037ZM332.025 145.27C331.077 145.27 330.255 145.06 329.559 144.64C328.869 144.22 328.332 143.629 327.948 142.867C327.564 142.105 327.372 141.211 327.372 140.185C327.372 139.123 327.561 138.205 327.939 137.431C328.317 136.657 328.848 136.06 329.532 135.64C330.222 135.22 331.035 135.01 331.971 135.01C332.931 135.01 333.75 135.232 334.428 135.676C335.106 136.114 335.619 136.744 335.967 137.566C336.315 138.388 336.474 139.369 336.444 140.509H335.094V140.041C335.07 138.781 334.797 137.83 334.275 137.188C333.759 136.546 333.003 136.225 332.007 136.225C330.963 136.225 330.162 136.564 329.604 137.242C329.052 137.92 328.776 138.886 328.776 140.14C328.776 141.364 329.052 142.315 329.604 142.993C330.162 143.665 330.951 144.001 331.971 144.001C332.667 144.001 333.273 143.842 333.789 143.524C334.311 143.2 334.722 142.735 335.022 142.129L336.255 142.606C335.871 143.452 335.304 144.109 334.554 144.577C333.81 145.039 332.967 145.27 332.025 145.27ZM328.308 140.509V139.402H335.733V140.509H328.308ZM349.77 145L349.779 138.619C349.779 137.869 349.569 137.281 349.149 136.855C348.735 136.423 348.207 136.207 347.565 136.207C347.199 136.207 346.842 136.291 346.494 136.459C346.146 136.627 345.858 136.897 345.63 137.269C345.408 137.641 345.297 138.127 345.297 138.727L344.514 138.502C344.496 137.806 344.631 137.197 344.919 136.675C345.213 136.153 345.615 135.748 346.125 135.46C346.641 135.166 347.223 135.019 347.871 135.019C348.849 135.019 349.632 135.322 350.22 135.928C350.808 136.528 351.102 137.341 351.102 138.367L351.093 145H349.77ZM338.169 145V135.28H339.357V137.674H339.501V145H338.169ZM343.983 145L343.992 138.709C343.992 137.935 343.785 137.326 343.371 136.882C342.963 136.432 342.423 136.207 341.751 136.207C341.079 136.207 340.536 136.438 340.122 136.9C339.708 137.356 339.501 137.965 339.501 138.727L338.709 138.295C338.709 137.671 338.856 137.113 339.15 136.621C339.444 136.123 339.846 135.733 340.356 135.451C340.866 135.163 341.445 135.019 342.093 135.019C342.711 135.019 343.26 135.151 343.74 135.415C344.226 135.679 344.607 136.063 344.883 136.567C345.159 137.071 345.297 137.683 345.297 138.403L345.288 145H343.983ZM353.616 133.435V131.95H354.939V133.435H353.616ZM353.616 145V135.28H354.939V145H353.616ZM364.657 145V140.041C364.657 139.501 364.606 139.006 364.504 138.556C364.402 138.1 364.237 137.704 364.009 137.368C363.787 137.026 363.496 136.762 363.136 136.576C362.782 136.39 362.35 136.297 361.84 136.297C361.372 136.297 360.958 136.378 360.598 136.54C360.244 136.702 359.944 136.936 359.698 137.242C359.458 137.542 359.275 137.908 359.149 138.34C359.023 138.772 358.96 139.264 358.96 139.816L358.024 139.609C358.024 138.613 358.198 137.776 358.546 137.098C358.894 136.42 359.374 135.907 359.986 135.559C360.598 135.211 361.3 135.037 362.092 135.037C362.674 135.037 363.181 135.127 363.613 135.307C364.051 135.487 364.42 135.73 364.72 136.036C365.026 136.342 365.272 136.693 365.458 137.089C365.644 137.479 365.779 137.896 365.863 138.34C365.947 138.778 365.989 139.216 365.989 139.654V145H364.657ZM357.628 145V135.28H358.825V137.674H358.96V145H357.628ZM368.504 133.435V131.95H369.827V133.435H368.504ZM368.504 145V135.28H369.827V145H368.504Z" fill="black"/>
</g>
</g>
<defs>
<filter id="filter0_dd_2125_4561" x="18" y="22" width="132" height="160" filterUnits="userSpaceOnUse" color-interpolation-filters="sRGB">
<feFlood flood-opacity="0" result="BackgroundImageFix"/>
<feColorMatrix in="SourceAlpha" type="matrix" values="0 0 0 0 0 0 0 0 0 0 0 0 0 0 0 0 0 0 127 0" result="hardAlpha"/>
<feOffset dy="4"/>
<feGaussianBlur stdDeviation="3"/>
<feComposite in2="hardAlpha" operator="out"/>
<feColorMatrix type="matrix" values="0 0 0 0 0 0 0 0 0 0 0 0 0 0 0 0 0 0 0.04 0"/>
<feBlend mode="normal" in2="BackgroundImageFix" result="effect1_dropShadow_2125_4561"/>
<feColorMatrix in="SourceAlpha" type="matrix" values="0 0 0 0 0 0 0 0 0 0 0 0 0 0 0 0 0 0 127 0" result="hardAlpha"/>
<feMorphology radius="1" operator="dilate" in="SourceAlpha" result="effect2_dropShadow_2125_4561"/>
<feOffset/>
<feComposite in2="hardAlpha" operator="out"/>
<feColorMatrix type="matrix" values="0 0 0 0 0 0 0 0 0 0 0 0 0 0 0 0 0 0 0.08 0"/>
<feBlend mode="normal" in2="effect1_dropShadow_2125_4561" result="effect2_dropShadow_2125_4561"/>
<feBlend mode="normal" in="SourceGraphic" in2="effect2_dropShadow_2125_4561" result="shape"/>
</filter>
<filter id="filter1_dd_2125_4561" x="148" y="22" width="132" height="160" filterUnits="userSpaceOnUse" color-interpolation-filters="sRGB">
<feFlood flood-opacity="0" result="BackgroundImageFix"/>
<feColorMatrix in="SourceAlpha" type="matrix" values="0 0 0 0 0 0 0 0 0 0 0 0 0 0 0 0 0 0 127 0" result="hardAlpha"/>
<feOffset dy="4"/>
<feGaussianBlur stdDeviation="3"/>
<feComposite in2="hardAlpha" operator="out"/>
<feColorMatrix type="matrix" values="0 0 0 0 0 0 0 0 0 0 0 0 0 0 0 0 0 0 0.04 0"/>
<feBlend mode="normal" in2="BackgroundImageFix" result="effect1_dropShadow_2125_4561"/>
<feColorMatrix in="SourceAlpha" type="matrix" values="0 0 0 0 0 0 0 0 0 0 0 0 0 0 0 0 0 0 127 0" result="hardAlpha"/>
<feMorphology radius="1" operator="dilate" in="SourceAlpha" result="effect2_dropShadow_2125_4561"/>
<feOffset/>
<feComposite in2="hardAlpha" operator="out"/>
<feColorMatrix type="matrix" values="0 0 0 0 0 0 0 0 0 0 0 0 0 0 0 0 0 0 0.08 0"/>
<feBlend mode="normal" in2="effect1_dropShadow_2125_4561" result="effect2_dropShadow_2125_4561"/>
<feBlend mode="normal" in="SourceGraphic" in2="effect2_dropShadow_2125_4561" result="shape"/>
</filter>
<filter id="filter2_dd_2125_4561" x="278" y="22" width="132" height="160" filterUnits="userSpaceOnUse" color-interpolation-filters="sRGB">
<feFlood flood-opacity="0" result="BackgroundImageFix"/>
<feColorMatrix in="SourceAlpha" type="matrix" values="0 0 0 0 0 0 0 0 0 0 0 0 0 0 0 0 0 0 127 0" result="hardAlpha"/>
<feOffset dy="4"/>
<feGaussianBlur stdDeviation="3"/>
<feComposite in2="hardAlpha" operator="out"/>
<feColorMatrix type="matrix" values="0 0 0 0 0 0 0 0 0 0 0 0 0 0 0 0 0 0 0.04 0"/>
<feBlend mode="normal" in2="BackgroundImageFix" result="effect1_dropShadow_2125_4561"/>
<feColorMatrix in="SourceAlpha" type="matrix" values="0 0 0 0 0 0 0 0 0 0 0 0 0 0 0 0 0 0 127 0" result="hardAlpha"/>
<feMorphology radius="1" operator="dilate" in="SourceAlpha" result="effect2_dropShadow_2125_4561"/>
<feOffset/>
<feComposite in2="hardAlpha" operator="out"/>
<feColorMatrix type="matrix" values="0 0 0 0 0 0 0 0 0 0 0 0 0 0 0 0 0 0 0.08 0"/>
<feBlend mode="normal" in2="effect1_dropShadow_2125_4561" result="effect2_dropShadow_2125_4561"/>
<feBlend mode="normal" in="SourceGraphic" in2="effect2_dropShadow_2125_4561" result="shape"/>
</filter>
<linearGradient id="paint0_linear_2125_4561" x1="214" y1="0" x2="214" y2="208" gradientUnits="userSpaceOnUse">
<stop offset="0.625"/>
<stop offset="1" stop-opacity="0"/>
</linearGradient>
<radialGradient id="paint1_radial_2125_4561" cx="0" cy="0" r="1" gradientUnits="userSpaceOnUse" gradientTransform="translate(318.352 70.012) rotate(18.6832) scale(68.12 545.684)">
<stop offset="0.067" stop-color="#9168C0"/>
<stop offset="0.343" stop-color="#5684D1"/>
<stop offset="0.672" stop-color="#1BA1E3"/>
</radialGradient>
<clipPath id="clip0_2125_4561">
<rect width="64" height="64" fill="white" transform="translate(52 44)"/>
</clipPath>
<clipPath id="clip1_2125_4561">
<rect width="64" height="64" fill="white" transform="translate(182 44)"/>
</clipPath>
<clipPath id="clip2_2125_4561">
<rect width="64" height="64" fill="white" transform="translate(312 44)"/>
</clipPath>
</defs>
</svg>
