<svg width="1576" height="400" viewBox="0 0 1576 400" fill="none" xmlns="http://www.w3.org/2000/svg">
<path d="M110.555 336.308C37.0998 299.579 -0.00277686 239.543 0 157.417C0.00528226 1.20758 399.995 1.20758 400 157.417C400.003 239.543 362.9 299.579 289.445 336.308C226.96 367.552 173.04 367.552 110.555 336.308Z" fill="#DB475E"/>
<ellipse cx="114.311" cy="182.462" rx="35.7782" ry="53.6673" fill="white"/>
<ellipse cx="286.047" cy="182.462" rx="35.7782" ry="53.6673" fill="white"/>
<path d="M518 315L586.1 99H639.05L707.15 315H669.95L608.15 121.2H616.25L555.2 315H518ZM555.95 268.2V234.45H669.35V268.2H555.95ZM780.02 319.65C768.02 319.65 758.12 317.65 750.32 313.65C742.52 309.65 736.32 304.55 731.72 298.35C727.12 292.15 723.72 285.55 721.52 278.55C719.32 271.55 717.87 264.95 717.17 258.75C716.57 252.45 716.27 247.35 716.27 243.45V153H752.87V231C752.87 236 753.22 241.65 753.92 247.95C754.62 254.15 756.22 260.15 758.72 265.95C761.32 271.65 765.12 276.35 770.12 280.05C775.22 283.75 782.07 285.6 790.67 285.6C795.27 285.6 799.82 284.85 804.32 283.35C808.82 281.85 812.87 279.3 816.47 275.7C820.17 272 823.12 266.95 825.32 260.55C827.52 254.15 828.62 246.05 828.62 236.25L850.07 245.4C850.07 259.2 847.37 271.7 841.97 282.9C836.67 294.1 828.82 303.05 818.42 309.75C808.02 316.35 795.22 319.65 780.02 319.65ZM832.97 315V264.75H828.62V153H864.92V315H832.97ZM987.013 315C976.313 317 965.813 317.85 955.513 317.55C945.313 317.35 936.163 315.5 928.063 312C919.963 308.4 913.813 302.75 909.612 295.05C905.913 288.05 903.963 280.9 903.763 273.6C903.563 266.3 903.463 258.05 903.463 248.85V108H939.463V246.75C939.463 253.25 939.513 258.95 939.613 263.85C939.813 268.75 940.863 272.75 942.763 275.85C946.363 281.85 952.113 285.2 960.013 285.9C967.913 286.6 976.913 286.2 987.013 284.7V315ZM874.063 181.35V153H987.013V181.35H874.063ZM1070.19 319.5C1053.99 319.5 1039.84 315.85 1027.74 308.55C1015.64 301.25 1006.24 291.2 999.545 278.4C992.945 265.5 989.645 250.7 989.645 234C989.645 217 993.045 202.1 999.845 189.3C1006.64 176.5 1016.09 166.5 1028.19 159.3C1040.29 152.1 1054.29 148.5 1070.19 148.5C1086.49 148.5 1100.69 152.15 1112.79 159.45C1124.89 166.75 1134.29 176.85 1140.99 189.75C1147.69 202.55 1151.04 217.3 1151.04 234C1151.04 250.8 1147.64 265.65 1140.84 278.55C1134.14 291.35 1124.74 301.4 1112.64 308.7C1100.54 315.9 1086.39 319.5 1070.19 319.5ZM1070.19 285.6C1084.59 285.6 1095.29 280.8 1102.29 271.2C1109.29 261.6 1112.79 249.2 1112.79 234C1112.79 218.3 1109.24 205.8 1102.14 196.5C1095.04 187.1 1084.39 182.4 1070.19 182.4C1060.49 182.4 1052.49 184.6 1046.19 189C1039.99 193.3 1035.39 199.35 1032.39 207.15C1029.39 214.85 1027.89 223.8 1027.89 234C1027.89 249.7 1031.44 262.25 1038.54 271.65C1045.74 280.95 1056.29 285.6 1070.19 285.6ZM1363.64 315V216.6C1363.64 205.5 1360.89 196.85 1355.39 190.65C1349.89 184.35 1342.44 181.2 1333.04 181.2C1327.24 181.2 1322.04 182.55 1317.44 185.25C1312.84 187.85 1309.19 191.75 1306.49 196.95C1303.79 202.05 1302.44 208.15 1302.44 215.25L1286.39 205.8C1286.29 194.6 1288.79 184.75 1293.89 176.25C1299.09 167.65 1306.09 160.95 1314.89 156.15C1323.69 151.35 1333.49 148.95 1344.29 148.95C1362.19 148.95 1375.89 154.35 1385.39 165.15C1394.99 175.85 1399.79 189.95 1399.79 207.45V315H1363.64ZM1168.79 315V153H1200.74V203.25H1205.24V315H1168.79ZM1266.44 315V217.05C1266.44 205.75 1263.69 196.95 1258.19 190.65C1252.69 184.35 1245.19 181.2 1235.69 181.2C1226.49 181.2 1219.09 184.35 1213.49 190.65C1207.99 196.95 1205.24 205.15 1205.24 215.25L1189.04 204.45C1189.04 193.95 1191.64 184.5 1196.84 176.1C1202.04 167.7 1209.04 161.1 1217.84 156.3C1226.74 151.4 1236.69 148.95 1247.69 148.95C1259.79 148.95 1269.89 151.55 1277.99 156.75C1286.19 161.85 1292.29 168.85 1296.29 177.75C1300.39 186.55 1302.44 196.5 1302.44 207.6V315H1266.44ZM1469.22 319.5C1457.52 319.5 1447.62 317.3 1439.52 312.9C1431.42 308.4 1425.27 302.45 1421.07 295.05C1416.97 287.65 1414.92 279.5 1414.92 270.6C1414.92 262.8 1416.22 255.8 1418.82 249.6C1421.42 243.3 1425.42 237.9 1430.82 233.4C1436.22 228.8 1443.22 225.05 1451.82 222.15C1458.32 220.05 1465.92 218.15 1474.62 216.45C1483.42 214.75 1492.92 213.2 1503.12 211.8C1513.42 210.3 1524.17 208.7 1535.37 207L1522.47 214.35C1522.57 203.15 1520.07 194.9 1514.97 189.6C1509.87 184.3 1501.27 181.65 1489.17 181.65C1481.87 181.65 1474.82 183.35 1468.02 186.75C1461.22 190.15 1456.47 196 1453.77 204.3L1420.77 193.95C1424.77 180.25 1432.37 169.25 1443.57 160.95C1454.87 152.65 1470.07 148.5 1489.17 148.5C1503.57 148.5 1516.22 150.85 1527.12 155.55C1538.12 160.25 1546.27 167.95 1551.57 178.65C1554.47 184.35 1556.22 190.2 1556.82 196.2C1557.42 202.1 1557.72 208.55 1557.72 215.55V315H1526.07V279.9L1531.32 285.6C1524.02 297.3 1515.47 305.9 1505.67 311.4C1495.97 316.8 1483.82 319.5 1469.22 319.5ZM1476.42 290.7C1484.62 290.7 1491.62 289.25 1497.42 286.35C1503.22 283.45 1507.82 279.9 1511.22 275.7C1514.72 271.5 1517.07 267.55 1518.27 263.85C1520.17 259.25 1521.22 254 1521.42 248.1C1521.72 242.1 1521.87 237.25 1521.87 233.55L1532.97 236.85C1522.07 238.55 1512.72 240.05 1504.92 241.35C1497.12 242.65 1490.42 243.9 1484.82 245.1C1479.22 246.2 1474.27 247.45 1469.97 248.85C1465.77 250.35 1462.22 252.1 1459.32 254.1C1456.42 256.1 1454.17 258.4 1452.57 261C1451.07 263.6 1450.32 266.65 1450.32 270.15C1450.32 274.15 1451.32 277.7 1453.32 280.8C1455.32 283.8 1458.22 286.2 1462.02 288C1465.92 289.8 1470.72 290.7 1476.42 290.7Z" fill="black"/>
</svg>
