<?xml version="1.0" encoding="UTF-8" standalone="no"?>
<svg
   viewBox="0 0 96.001404 86.32"
   version="1.1"
   id="svg13"
   width="96.001404"
   height="86.32"
   xmlns="http://www.w3.org/2000/svg"
   xmlns:svg="http://www.w3.org/2000/svg">
  <defs
     id="defs7">
    <linearGradient
       id="bitbucket-original-a"
       gradientUnits="userSpaceOnUse"
       x1="28.593"
       y1="14.226"
       x2="16.672001"
       y2="23.532"
       gradientTransform="matrix(4,0,0,4,-15.999298,-20)">
      <stop
         offset=".176"
         stop-color="#0052cc"
         id="stop2" />
      <stop
         offset="1"
         stop-color="#2684ff"
         id="stop4" />
    </linearGradient>
  </defs>
  <path
     d="m 3.0827025,0 c -1.918,0 -3.35500004,1.758 -3.03900004,3.516 L 12.993702,82.805 c 0.32,2.078 2.077,3.515 4.155,3.515 h 62.66 c 1.442,0 2.72,-1.12 3.04,-2.558 l 13.109,-80.086 c 0.316,-1.918 -1.121,-3.516 -3.039,-3.516 z M 58.070702,57.227 h -19.98 l -5.278,-28.293 h 30.215 z m 0,0"
     fill="#2684ff"
     id="path9" />
  <path
     d="m 91.640702,28.934 h -28.772 l -4.798,28.293 h -19.98 l -23.5,27.972 c 0,0 1.12,0.961 2.719,0.961 h 62.66 c 1.441,0 2.719,-1.12 3.039,-2.558 z m 0,0"
     fill="url(#bitbucket-original-a)"
     id="path11"
     style="fill:url(#bitbucket-original-a)" />
</svg>
