<?xml version="1.0" encoding="UTF-8"?>
<svg id="Layer_1" data-name="Layer 1" xmlns="http://www.w3.org/2000/svg" version="1.1" viewBox="0 0 122.8 122.8">
  <defs>
    <style>
      .cls-1 {
        fill: #e01e5a;
      }

      .cls-1, .cls-2, .cls-3, .cls-4 {
        stroke-width: 0px;
      }

      .cls-2 {
        fill: #ecb22e;
      }

      .cls-3 {
        fill: #2eb67d;
      }

      .cls-4 {
        fill: #36c5f0;
      }
    </style>
  </defs>
  <g>
    <path class="cls-1" d="M25.8,77.6c0,7.1-5.8,12.9-12.9,12.9S0,84.7,0,77.6s5.8-12.9,12.9-12.9h12.9v12.9Z"/>
    <path class="cls-1" d="M32.3,77.6c0-7.1,5.8-12.9,12.9-12.9s12.9,5.8,12.9,12.9v32.3c0,7.1-5.8,12.9-12.9,12.9s-12.9-5.8-12.9-12.9c0,0,0-32.3,0-32.3Z"/>
  </g>
  <g>
    <path class="cls-4" d="M45.2,25.8c-7.1,0-12.9-5.8-12.9-12.9S38.1,0,45.2,0s12.9,5.8,12.9,12.9v12.9h-12.9Z"/>
    <path class="cls-4" d="M45.2,32.3c7.1,0,12.9,5.8,12.9,12.9s-5.8,12.9-12.9,12.9H12.9c-7.1,0-12.9-5.8-12.9-12.9s5.8-12.9,12.9-12.9c0,0,32.3,0,32.3,0Z"/>
  </g>
  <g>
    <path class="cls-3" d="M97,45.2c0-7.1,5.8-12.9,12.9-12.9s12.9,5.8,12.9,12.9-5.8,12.9-12.9,12.9h-12.9v-12.9Z"/>
    <path class="cls-3" d="M90.5,45.2c0,7.1-5.8,12.9-12.9,12.9s-12.9-5.8-12.9-12.9V12.9c0-7.1,5.8-12.9,12.9-12.9s12.9,5.8,12.9,12.9v32.3Z"/>
  </g>
  <g>
    <path class="cls-2" d="M77.6,97c7.1,0,12.9,5.8,12.9,12.9s-5.8,12.9-12.9,12.9-12.9-5.8-12.9-12.9v-12.9h12.9Z"/>
    <path class="cls-2" d="M77.6,90.5c-7.1,0-12.9-5.8-12.9-12.9s5.8-12.9,12.9-12.9h32.3c7.1,0,12.9,5.8,12.9,12.9s-5.8,12.9-12.9,12.9h-32.3Z"/>
  </g>
</svg>
